<?xml version="1.0" encoding="UTF-8" standalone="no"?><svg xmlns="http://www.w3.org/2000/svg" xmlns:xlink="http://www.w3.org/1999/xlink" contentStyleType="text/css" height="696px" preserveAspectRatio="none" style="width:719px;height:696px;background:#FFFFFF;" version="1.1" viewBox="0 0 719 696" width="719px" zoomAndPan="magnify"><defs/><g><rect fill="none" height="131.5313" style="stroke:#000000;stroke-width:1.5;" width="654" x="10" y="238.8281"/><rect fill="none" height="75.3984" style="stroke:#000000;stroke-width:1.5;" width="593.5" x="10" y="596.8906"/><line style="stroke:#181818;stroke-width:0.5;stroke-dasharray:5.0,5.0;" x1="82" x2="82" y1="36.2969" y2="117.5625"/><line style="stroke:#A80036;stroke-width:1.0;stroke-dasharray:1.0,4.0;" x1="82" x2="82" y1="117.5625" y2="145.5625"/><line style="stroke:#181818;stroke-width:0.5;stroke-dasharray:5.0,5.0;" x1="82" x2="82" y1="145.5625" y2="203.8281"/><line style="stroke:#A80036;stroke-width:1.0;stroke-dasharray:1.0,4.0;" x1="82" x2="82" y1="203.8281" y2="231.8281"/><line style="stroke:#181818;stroke-width:0.5;stroke-dasharray:5.0,5.0;" x1="82" x2="82" y1="231.8281" y2="313.2266"/><line style="stroke:#A80036;stroke-width:1.0;stroke-dasharray:1.0,4.0;" x1="82" x2="82" y1="313.2266" y2="341.2266"/><line style="stroke:#181818;stroke-width:0.5;stroke-dasharray:5.0,5.0;" x1="82" x2="82" y1="341.2266" y2="377.3594"/><line style="stroke:#A80036;stroke-width:1.0;stroke-dasharray:1.0,4.0;" x1="82" x2="82" y1="377.3594" y2="405.3594"/><line style="stroke:#181818;stroke-width:0.5;stroke-dasharray:5.0,5.0;" x1="82" x2="82" y1="405.3594" y2="447.4922"/><line style="stroke:#A80036;stroke-width:1.0;stroke-dasharray:1.0,4.0;" x1="82" x2="82" y1="447.4922" y2="475.4922"/><line style="stroke:#181818;stroke-width:0.5;stroke-dasharray:5.0,5.0;" x1="82" x2="82" y1="475.4922" y2="532.7578"/><line style="stroke:#A80036;stroke-width:1.0;stroke-dasharray:1.0,4.0;" x1="82" x2="82" y1="532.7578" y2="560.7578"/><line style="stroke:#181818;stroke-width:0.5;stroke-dasharray:5.0,5.0;" x1="82" x2="82" y1="560.7578" y2="689.2891"/><line style="stroke:#181818;stroke-width:0.5;stroke-dasharray:5.0,5.0;" x1="542.5" x2="542.5" y1="36.2969" y2="117.5625"/><line style="stroke:#A80036;stroke-width:1.0;stroke-dasharray:1.0,4.0;" x1="542.5" x2="542.5" y1="117.5625" y2="145.5625"/><line style="stroke:#181818;stroke-width:0.5;stroke-dasharray:5.0,5.0;" x1="542.5" x2="542.5" y1="145.5625" y2="203.8281"/><line style="stroke:#A80036;stroke-width:1.0;stroke-dasharray:1.0,4.0;" x1="542.5" x2="542.5" y1="203.8281" y2="231.8281"/><line style="stroke:#181818;stroke-width:0.5;stroke-dasharray:5.0,5.0;" x1="542.5" x2="542.5" y1="231.8281" y2="313.2266"/><line style="stroke:#A80036;stroke-width:1.0;stroke-dasharray:1.0,4.0;" x1="542.5" x2="542.5" y1="313.2266" y2="341.2266"/><line style="stroke:#181818;stroke-width:0.5;stroke-dasharray:5.0,5.0;" x1="542.5" x2="542.5" y1="341.2266" y2="377.3594"/><line style="stroke:#A80036;stroke-width:1.0;stroke-dasharray:1.0,4.0;" x1="542.5" x2="542.5" y1="377.3594" y2="405.3594"/><line style="stroke:#181818;stroke-width:0.5;stroke-dasharray:5.0,5.0;" x1="542.5" x2="542.5" y1="405.3594" y2="447.4922"/><line style="stroke:#A80036;stroke-width:1.0;stroke-dasharray:1.0,4.0;" x1="542.5" x2="542.5" y1="447.4922" y2="475.4922"/><line style="stroke:#181818;stroke-width:0.5;stroke-dasharray:5.0,5.0;" x1="542.5" x2="542.5" y1="475.4922" y2="532.7578"/><line style="stroke:#A80036;stroke-width:1.0;stroke-dasharray:1.0,4.0;" x1="542.5" x2="542.5" y1="532.7578" y2="560.7578"/><line style="stroke:#181818;stroke-width:0.5;stroke-dasharray:5.0,5.0;" x1="542.5" x2="542.5" y1="560.7578" y2="689.2891"/><rect fill="#E2E2F0" height="30.2969" rx="2.5" ry="2.5" style="stroke:#181818;stroke-width:0.5;" width="124" x="20" y="5"/><text fill="#000000" font-family="sans-serif" font-size="14" lengthAdjust="spacing" textLength="110" x="27" y="24.9951">Data Consumer</text><rect fill="#E2E2F0" height="30.2969" rx="2.5" ry="2.5" style="stroke:#181818;stroke-width:0.5;" width="101" x="492.5" y="5"/><text fill="#000000" font-family="sans-serif" font-size="14" lengthAdjust="spacing" textLength="87" x="499.5" y="24.9951">Data Source</text><line style="stroke:#181818;stroke-width:1.0;" x1="82" x2="124" y1="67.4297" y2="67.4297"/><line style="stroke:#181818;stroke-width:1.0;" x1="124" x2="124" y1="67.4297" y2="80.4297"/><line style="stroke:#181818;stroke-width:1.0;" x1="83" x2="124" y1="80.4297" y2="80.4297"/><polygon fill="#181818" points="93,76.4297,83,80.4297,93,84.4297,89,80.4297" style="stroke:#181818;stroke-width:1.0;"/><a href="#cr-task1" target="_top" title="#cr-task1" xlink:actuate="onRequest" xlink:href="#cr-task1" xlink:show="new" xlink:title="#cr-task1" xlink:type="simple"><text fill="#0000FF" font-family="sans-serif" font-size="13" lengthAdjust="spacing" text-decoration="underline" textLength="12" x="89" y="62.3638">1.</text></a><text fill="#000000" font-family="sans-serif" font-size="13" lengthAdjust="spacing" textLength="313" x="105" y="62.3638">POST 'placer order' CommunicationRequest [cr1]</text><polygon fill="#181818" points="531,105.5625,541,109.5625,531,113.5625,535,109.5625" style="stroke:#181818;stroke-width:1.0;"/><line style="stroke:#181818;stroke-width:1.0;" x1="82" x2="537" y1="109.5625" y2="109.5625"/><a href="#cr-task2" target="_top" title="#cr-task2" xlink:actuate="onRequest" xlink:href="#cr-task2" xlink:show="new" xlink:title="#cr-task2" xlink:type="simple"><text fill="#0000FF" font-family="sans-serif" font-size="13" lengthAdjust="spacing" text-decoration="underline" textLength="12" x="89" y="104.4966">2.</text></a><text fill="#000000" font-family="sans-serif" font-size="13" lengthAdjust="spacing" textLength="199" x="105" y="104.4966">POST Task [t1] with focus [cr1]</text><polygon fill="#181818" points="93,162.6953,83,166.6953,93,170.6953,89,166.6953" style="stroke:#181818;stroke-width:1.0;"/><line style="stroke:#181818;stroke-width:1.0;" x1="87" x2="542" y1="166.6953" y2="166.6953"/><a href="#cr-task3" target="_top" title="#cr-task3" xlink:actuate="onRequest" xlink:href="#cr-task3" xlink:show="new" xlink:title="#cr-task3" xlink:type="simple"><text fill="#0000FF" font-family="sans-serif" font-size="13" lengthAdjust="spacing" text-decoration="underline" textLength="20" x="99" y="161.6294">3a.</text></a><text fill="#000000" font-family="sans-serif" font-size="13" lengthAdjust="spacing" textLength="328" x="123" y="161.6294">GET (read) [cr1] based on reference from Task [t1]</text><polygon fill="#181818" points="531,191.8281,541,195.8281,531,199.8281,535,195.8281" style="stroke:#181818;stroke-width:1.0;"/><line style="stroke:#181818;stroke-width:1.0;stroke-dasharray:2.0,2.0;" x1="82" x2="537" y1="195.8281" y2="195.8281"/><a href="#cr-task3" target="_top" title="#cr-task3" xlink:actuate="onRequest" xlink:href="#cr-task3" xlink:show="new" xlink:title="#cr-task3" xlink:type="simple"><text fill="#0000FF" font-family="sans-serif" font-size="13" lengthAdjust="spacing" text-decoration="underline" textLength="20" x="89" y="190.7622">3b.</text></a><text fill="#000000" font-family="sans-serif" font-size="13" lengthAdjust="spacing" textLength="318" x="113" y="190.7622">Return [cr1] (instructing on what data to retrieve)</text><path d="M10,238.8281 L82,238.8281 L82,245.9609 L72,255.9609 L10,255.9609 L10,238.8281 " fill="#EEEEEE" style="stroke:#000000;stroke-width:1.5;"/><rect fill="none" height="131.5313" style="stroke:#000000;stroke-width:1.5;" width="654" x="10" y="238.8281"/><text fill="#000000" font-family="sans-serif" font-size="13" font-weight="bold" lengthAdjust="spacing" textLength="27" x="25" y="251.895">opt</text><line style="stroke:#181818;stroke-width:1.0;" x1="543" x2="585" y1="292.2266" y2="292.2266"/><line style="stroke:#181818;stroke-width:1.0;" x1="585" x2="585" y1="292.2266" y2="305.2266"/><line style="stroke:#181818;stroke-width:1.0;" x1="544" x2="585" y1="305.2266" y2="305.2266"/><polygon fill="#181818" points="554,301.2266,544,305.2266,554,309.2266,550,305.2266" style="stroke:#181818;stroke-width:1.0;"/><a href="#cr-task4" target="_top" title="#cr-task4" xlink:actuate="onRequest" xlink:href="#cr-task4" xlink:show="new" xlink:title="#cr-task4" xlink:type="simple"><text fill="#0000FF" font-family="sans-serif" font-size="13" lengthAdjust="spacing" text-decoration="underline" textLength="12" x="550" y="272.0278">4.</text></a><text fill="#000000" font-family="sans-serif" font-size="13" lengthAdjust="spacing" textLength="86" x="566" y="272.0278">PUT Task [t1]</text><text fill="#000000" font-family="sans-serif" font-size="13" lengthAdjust="spacing" textLength="89" x="554" y="287.1606">update status</text><polygon fill="#181818" points="93,358.3594,83,362.3594,93,366.3594,89,362.3594" style="stroke:#181818;stroke-width:1.0;"/><polygon fill="#181818" points="531,358.3594,541,362.3594,531,366.3594,535,362.3594" style="stroke:#181818;stroke-width:1.0;"/><line style="stroke:#181818;stroke-width:1.0;" x1="87" x2="537" y1="362.3594" y2="362.3594"/><a href="#cr-task5" target="_top" title="#cr-task5" xlink:actuate="onRequest" xlink:href="#cr-task5" xlink:show="new" xlink:title="#cr-task5" xlink:type="simple"><text fill="#0000FF" font-family="sans-serif" font-size="13" lengthAdjust="spacing" text-decoration="underline" textLength="12" x="99" y="357.2935">5.</text></a><text fill="#000000" font-family="sans-serif" font-size="13" lengthAdjust="spacing" textLength="203" x="115" y="357.2935">Poll/Subscribe to see [t1] status</text><line style="stroke:#181818;stroke-width:1.0;" x1="543" x2="585" y1="426.4922" y2="426.4922"/><line style="stroke:#181818;stroke-width:1.0;" x1="585" x2="585" y1="426.4922" y2="439.4922"/><line style="stroke:#181818;stroke-width:1.0;" x1="544" x2="585" y1="439.4922" y2="439.4922"/><polygon fill="#181818" points="554,435.4922,544,439.4922,554,443.4922,550,439.4922" style="stroke:#181818;stroke-width:1.0;"/><a href="#cr-task6" target="_top" title="#cr-task6" xlink:actuate="onRequest" xlink:href="#cr-task6" xlink:show="new" xlink:title="#cr-task6" xlink:type="simple"><text fill="#0000FF" font-family="sans-serif" font-size="13" lengthAdjust="spacing" text-decoration="underline" textLength="12" x="550" y="421.4263">6.</text></a><text fill="#000000" font-family="sans-serif" font-size="13" lengthAdjust="spacing" textLength="146" x="566" y="421.4263">POST [requested data]</text><line style="stroke:#181818;stroke-width:1.0;" x1="543" x2="585" y1="511.7578" y2="511.7578"/><line style="stroke:#181818;stroke-width:1.0;" x1="585" x2="585" y1="511.7578" y2="524.7578"/><line style="stroke:#181818;stroke-width:1.0;" x1="544" x2="585" y1="524.7578" y2="524.7578"/><polygon fill="#181818" points="554,520.7578,544,524.7578,554,528.7578,550,524.7578" style="stroke:#181818;stroke-width:1.0;"/><a href="#cr-task7" target="_top" title="#cr-task7" xlink:actuate="onRequest" xlink:href="#cr-task7" xlink:show="new" xlink:title="#cr-task7" xlink:type="simple"><text fill="#0000FF" font-family="sans-serif" font-size="13" lengthAdjust="spacing" text-decoration="underline" textLength="12" x="550" y="491.5591">7.</text></a><text fill="#000000" font-family="sans-serif" font-size="13" lengthAdjust="spacing" textLength="86" x="566" y="491.5591">PUT Task [t1]</text><text fill="#000000" font-family="sans-serif" font-size="13" lengthAdjust="spacing" textLength="150" x="554" y="506.6919">link to [requested data]</text><polygon fill="#181818" points="93,577.8906,83,581.8906,93,585.8906,89,581.8906" style="stroke:#181818;stroke-width:1.0;"/><polygon fill="#181818" points="531,577.8906,541,581.8906,531,585.8906,535,581.8906" style="stroke:#181818;stroke-width:1.0;"/><line style="stroke:#181818;stroke-width:1.0;" x1="87" x2="537" y1="581.8906" y2="581.8906"/><a href="#cr-task8" target="_top" title="#cr-task8" xlink:actuate="onRequest" xlink:href="#cr-task8" xlink:show="new" xlink:title="#cr-task8" xlink:type="simple"><text fill="#0000FF" font-family="sans-serif" font-size="13" lengthAdjust="spacing" text-decoration="underline" textLength="12" x="99" y="576.8247">8.</text></a><text fill="#000000" font-family="sans-serif" font-size="13" lengthAdjust="spacing" textLength="203" x="115" y="576.8247">Poll/Subscribe to see [t1] status</text><path d="M10,596.8906 L82,596.8906 L82,604.0234 L72,614.0234 L10,614.0234 L10,596.8906 " fill="#EEEEEE" style="stroke:#000000;stroke-width:1.5;"/><rect fill="none" height="75.3984" style="stroke:#000000;stroke-width:1.5;" width="593.5" x="10" y="596.8906"/><text fill="#000000" font-family="sans-serif" font-size="13" font-weight="bold" lengthAdjust="spacing" textLength="27" x="25" y="609.9575">opt</text><polygon fill="#181818" points="531,631.1563,541,635.1563,531,639.1563,535,635.1563" style="stroke:#181818;stroke-width:1.0;"/><line style="stroke:#181818;stroke-width:1.0;" x1="82" x2="537" y1="635.1563" y2="635.1563"/><a href="#cr-task9" target="_top" title="#cr-task9" xlink:actuate="onRequest" xlink:href="#cr-task9" xlink:show="new" xlink:title="#cr-task9" xlink:type="simple"><text fill="#0000FF" font-family="sans-serif" font-size="13" lengthAdjust="spacing" text-decoration="underline" textLength="20" x="89" y="630.0903">9a.</text></a><text fill="#000000" font-family="sans-serif" font-size="13" lengthAdjust="spacing" textLength="413" x="113" y="630.0903">Query to retrieve [requested data] based on reference from [t1]</text><polygon fill="#181818" points="93,660.2891,83,664.2891,93,668.2891,89,664.2891" style="stroke:#181818;stroke-width:1.0;"/><line style="stroke:#181818;stroke-width:1.0;stroke-dasharray:2.0,2.0;" x1="87" x2="542" y1="664.2891" y2="664.2891"/><a href="#cr-task9" target="_top" title="#cr-task9" xlink:actuate="onRequest" xlink:href="#cr-task9" xlink:show="new" xlink:title="#cr-task9" xlink:type="simple"><text fill="#0000FF" font-family="sans-serif" font-size="13" lengthAdjust="spacing" text-decoration="underline" textLength="20" x="99" y="659.2231">9b.</text></a><text fill="#000000" font-family="sans-serif" font-size="13" lengthAdjust="spacing" textLength="284" x="123" y="659.2231">Query response containing [requested data]</text><!--MD5=[586e8714ec9762fff3013d2b7cf83a93]
@startuml
hide footbox
participant "Data Consumer" as Consumer
participant "Data Source" as Source
Consumer -> Consumer: [[#cr-task1 1.]] POST 'placer order' CommunicationRequest [cr1]
Consumer -> Source: [[#cr-task2 2.]] POST Task [t1] with focus [cr1]
...
Consumer <- Source: [[#cr-task3 3a.]] GET (read) [cr1] based on reference from Task [t1]
Consumer - -> Source: [[#cr-task3 3b.]] Return [cr1] (instructing on what data to retrieve)
...
opt
  Source -> Source: [[#cr-task4 4.]] PUT Task [t1]\n update status
  ...
  Consumer <-> Source: [[#cr-task5 5.]] Poll/Subscribe to see [t1] status
end
...
Source -> Source: [[#cr-task6 6.]] POST [requested data]
...
Source -> Source: [[#cr-task7 7.]] PUT Task [t1]\n link to [requested data]
...
Consumer <-> Source: [[#cr-task8 8.]] Poll/Subscribe to see [t1] status
opt
  Consumer -> Source: [[#cr-task9 9a.]] Query to retrieve [requested data] based on reference from [t1]
  Consumer <- - Source: [[#cr-task9 9b.]] Query response containing [requested data]
end
@enduml

PlantUML version 1.2022.8beta2(Unknown compile time)
(GPL source distribution)
Java Runtime: Java(TM) SE Runtime Environment
JVM: Java HotSpot(TM) 64-Bit Server VM
Default Encoding: UTF-8
Language: en
Country: US
--></g></svg>