<svg xmlns="http://www.w3.org/2000/svg" xmlns:xlink="http://www.w3.org/1999/xlink" version="1.1" style="background-color: #ffffff; font-family: Helvetica;">
  <title>Composition Status Workflow</title>
  <defs>
    <marker id="arrow" viewBox="0 0 10 10" refX="8" refY="5" markerWidth="8" markerHeight="8" orient="auto-start-reverse" markerUnits="userSpaceOnUse">
      <path d="M 0 0 L 10 5 L 0 10 L 2.5 5 z" fill="#000000" shape-rendering="crispEdges" />
    </marker>
  </defs>
  <g fill="none" stroke="#000000" stroke-width="1.0" marker-end="url(#arrow)" shape-rendering="crispEdges">
    <path d="M 30 60 L 47 60" />
    <path d="M 170 60 L 217 60" />
    <path d="M 340 60 L 387 60" />
    <path d="M 510 60 L 557 60" />
    <path d="M 90 35 L 90 5 L 620 5 L 620 32" />
    <path d="M 110 35 L 110 12 L 450 12 L 450 32" />
    <path d="M 280 35 L 280 20 L 600 20 L 600 32" />
    <path d="M 680 60 L 717 60" />
    <path d="M 620 85 L 620 130 L 717 130" />
    <path d="M 600 85 L 600 200 L 717 200" />
    <path d="M 830 60 L 940 60 L 940 102" />
    <path d="M 830 130 L 877 130" />
    <path d="M 830 200 L 940 200 L 940 158" />
    <path d="M 1000 130 L 1015 130" />
    <path d="M 110 85 L 110 145 L 217 145" />
    <path d="M 280 85 L 280 117" />
    <path d="M 450 85 L 450 100 L 315 100 L 315 117" />
    <path d="M 580 85 L 580 145 L 513 145" />
    <path d="M 450 200 L 450 173" />
  </g>
  <circle cx="20" cy="60" r="10" fill="#000000" shape-rendering="crispEdges" />
  <circle cx="1030" cy="130" r="12" fill="none" stroke="#000000" stroke-width="1" shape-rendering="crispEdges" />
  <circle cx="1030" cy="130" r="10.5" fill="#000000" />
  <g shape-rendering="crispEdges">
    <rect x="50" y="35" width="120" height="50" rx="9" ry="9" fill="#f5f5f5" stroke="#666666" />
    <text x="110" y="64" fill="#111111" text-anchor="middle" font-size="12px">registered</text>
  </g>
  <g shape-rendering="crispEdges">
    <rect x="220" y="35" width="120" height="50" rx="9" ry="9" fill="#dae8fc" stroke="#6c8ebf" />
    <text x="280" y="64" fill="#111111" text-anchor="middle" font-size="12px">partial</text>
  </g>
  <g shape-rendering="crispEdges">
    <rect x="390" y="35" width="120" height="50" rx="9" ry="9" fill="#dae8fc" stroke="#6c8ebf" />
    <text x="450" y="64" fill="#111111" text-anchor="middle" font-size="12px">preliminary</text>
  </g>
  <g shape-rendering="crispEdges">
    <rect x="560" y="35" width="120" height="50" rx="9" ry="9" fill="#d5e8d4" stroke="#82b366" />
    <text x="620" y="64" fill="#111111" text-anchor="middle" font-size="12px">final</text>
  </g>
  <g shape-rendering="crispEdges">
    <rect x="720" y="35" width="120" height="50" rx="9" ry="9" fill="#d5e8d4" stroke="#82b366" />
    <text x="780" y="64" fill="#111111" text-anchor="middle" font-size="12px">amended</text>
  </g>
  <g shape-rendering="crispEdges">
    <rect x="720" y="105" width="120" height="50" rx="9" ry="9" fill="#d5e8d4" stroke="#82b366" />
    <text x="780" y="134" fill="#111111" text-anchor="middle" font-size="12px">corrected</text>
  </g>
  <g shape-rendering="crispEdges">
    <rect x="720" y="175" width="120" height="50" rx="9" ry="9" fill="#d5e8d4" stroke="#82b366" />
    <text x="780" y="204" fill="#111111" text-anchor="middle" font-size="12px">appended</text>
  </g>
  <g shape-rendering="crispEdges">
    <rect x="220" y="120" width="120" height="50" rx="9" ry="9" fill="#f8cecc" stroke="#b85450" />
    <text x="280" y="149" fill="#111111" text-anchor="middle" font-size="12px">cancelled</text>
  </g>
  <g shape-rendering="crispEdges">
    <rect x="880" y="105" width="120" height="50" rx="9" ry="9" fill="#f8cecc" stroke="#b85450" />
    <text x="940" y="134" fill="#111111" text-anchor="middle" font-size="12px">deprecated</text>
  </g>
  <g shape-rendering="crispEdges">
    <rect x="50" y="170" width="120" height="50" rx="9" ry="9" fill="#f5f5f5" stroke="#666666" />
    <text x="110" y="200" fill="#111111" text-anchor="middle" font-size="12px">unknown</text>
  </g>
  <g shape-rendering="crispEdges">
    <rect x="390" y="120" width="120" height="50" rx="9" ry="9" fill="#f8cecc" stroke="#b85450" />
    <text x="450" y="149" fill="#111111" text-anchor="middle" font-size="12px">entered-in-error</text>
  </g>
  <text x="450" y="210" font-size="11px" fill="#666666" text-anchor="middle" font-style="italic">(from any status)</text>
</svg>
