<svg xmlns="http://www.w3.org/2000/svg" xmlns:xlink="http://www.w3.org/1999/xlink" contentStyleType="text/css" data-diagram-type="STATE" height="741px" preserveAspectRatio="none" style="width:1511px;height:741px;background:#FFFFFF;" version="1.1" viewBox="0 0 1511 741" width="1511px" zoomAndPan="magnify"><defs/><g><path d="M298.2,7 L1207.2,7 A12.5,12.5 0 0 1 1219.7,19.5 L1219.7,33.2969 L285.7,33.2969 L285.7,19.5 A12.5,12.5 0 0 1 298.2,7" fill="#F1F1F1"/><rect fill="none" height="132.8628" rx="12.5" ry="12.5" style="stroke:#181818;stroke-width:0.5;" width="934" x="285.7" y="7"/><line style="stroke:#181818;stroke-width:0.5;" x1="285.7" x2="1219.7" y1="33.2969" y2="33.2969"/><text fill="#000000" font-family="sans-serif" font-size="14" lengthAdjust="spacing" textLength="114.0166" x="695.6917" y="24.9951">Condition states</text><rect fill="#F1F1F1" height="40" rx="12.5" ry="12.5" style="stroke:#181818;stroke-width:0.5;" width="100.2959" x="334.55" y="89.8628"/><text fill="#000000" font-family="sans-serif" font-size="14" lengthAdjust="spacing" textLength="90.2959" x="339.55" y="114.7095">No Condition</text><rect fill="#F1F1F1" height="40" rx="12.5" ry="12.5" style="stroke:#181818;stroke-width:0.5;" width="124.8096" x="618.3" y="89.8628"/><text fill="#000000" font-family="sans-serif" font-size="14" lengthAdjust="spacing" textLength="114.8096" x="623.3" y="114.7095">Condition Active</text><rect fill="#F1F1F1" height="40" rx="12.5" ry="12.5" style="stroke:#181818;stroke-width:0.5;" width="125.3633" x="896.02" y="89.8628"/><text fill="#000000" font-family="sans-serif" font-size="14" lengthAdjust="spacing" textLength="115.3633" x="901.02" y="114.7095">Condition Ended</text><ellipse cx="306.7" cy="109.8628" fill="#222222" rx="10" ry="10" style="stroke:#222222;stroke-width:1;"/><ellipse cx="1200.7" cy="109.8628" fill="none" rx="11" ry="11" style="stroke:#222222;stroke-width:1;"/><ellipse cx="1200.7" cy="109.8628" fill="#222222" rx="6" ry="6" style="stroke:#222222;stroke-width:1;"/><!--link *start*Condition to NoCondition--><g class="link" data-entity-1=".start.Condition" data-entity-2="NoCondition" data-source-line="7" data-uid="lnk3" id="link_.start.Condition_NoCondition"><path d="M317.06,109.8628 C322.78,109.8628 322.51,109.8628 328.23,109.8628" fill="none" id="*start*Condition-to-NoCondition" style="stroke:#181818;stroke-width:1;"/><polygon fill="#181818" points="334.23,109.8628,325.23,105.8628,329.23,109.8628,325.23,113.8628,334.23,109.8628" style="stroke:#181818;stroke-width:1;"/></g><!--link NoCondition to ConditionActive--><g class="link" data-entity-1="NoCondition" data-entity-2="ConditionActive" data-source-line="8" data-uid="lnk4" id="link_NoCondition_ConditionActive"><path d="M435.25,109.8628 C485.77,109.8628 557.58,109.8628 612.01,109.8628" fill="none" id="NoCondition-to-ConditionActive" style="stroke:#181818;stroke-width:1;"/><polygon fill="#181818" points="618.01,109.8628,609.01,105.8628,613.01,109.8628,609.01,113.8628,618.01,109.8628" style="stroke:#181818;stroke-width:1;"/><text fill="#000000" font-family="sans-serif" font-size="13" lengthAdjust="spacing" textLength="101.2896" x="476.3654" y="57.9297">condition starts</text><text fill="#000000" font-family="sans-serif" font-size="13" lengthAdjust="spacing" textLength="110.7349" x="471.6428" y="73.0625">resource created</text><text fill="#000000" font-family="sans-serif" font-size="13" lengthAdjust="spacing" textLength="19.8682" x="452.3967" y="88.1953">set</text><text fill="#000000" font-family="monospace" font-size="13" lengthAdjust="spacing" textLength="125.2266" x="476.3971" y="88.1953">occurrence.start</text><text fill="#000000" font-family="sans-serif" font-size="13" lengthAdjust="spacing" textLength="19.8682" x="444.57" y="103.3281">set</text><text fill="#000000" font-family="monospace" font-size="13" lengthAdjust="spacing" textLength="140.8799" x="468.5705" y="103.3281">status=in-progress</text></g><!--link ConditionActive to ConditionEnded--><g class="link" data-entity-1="ConditionActive" data-entity-2="ConditionEnded" data-source-line="9" data-uid="lnk5" id="link_ConditionActive_ConditionEnded"><path d="M743.44,109.8628 C788.92,109.8628 844.17,109.8628 889.71,109.8628" fill="none" id="ConditionActive-to-ConditionEnded" style="stroke:#181818;stroke-width:1;"/><polygon fill="#181818" points="895.71,109.8628,886.71,105.8628,890.71,109.8628,886.71,113.8628,895.71,109.8628" style="stroke:#181818;stroke-width:1;"/><text fill="#000000" font-family="sans-serif" font-size="13" lengthAdjust="spacing" textLength="95.5005" x="772.0966" y="87.9297">condition ends</text><text fill="#000000" font-family="sans-serif" font-size="13" lengthAdjust="spacing" textLength="19.8682" x="753.06" y="103.0625">set</text><text fill="#000000" font-family="monospace" font-size="13" lengthAdjust="spacing" textLength="109.5732" x="777.0605" y="103.0625">occurrence.end</text></g><!--link ConditionEnded to *end*Condition--><g class="link" data-entity-1="ConditionEnded" data-entity-2=".end.Condition" data-source-line="10" data-uid="lnk7" id="link_ConditionEnded_.end.Condition"><path d="M1021.65,109.8628 C1079.35,109.8628 1154.13,109.8628 1183.48,109.8628" fill="none" id="ConditionEnded-to-*end*Condition" style="stroke:#181818;stroke-width:1;"/><polygon fill="#181818" points="1189.48,109.8628,1180.48,105.8628,1184.48,109.8628,1180.48,113.8628,1189.48,109.8628" style="stroke:#181818;stroke-width:1;"/><text fill="#000000" font-family="sans-serif" font-size="13" lengthAdjust="spacing" textLength="97.5635" x="1056.8718" y="72.9297">signalling ends</text><text fill="#000000" font-family="sans-serif" font-size="13" lengthAdjust="spacing" textLength="106.8945" x="1052.2063" y="88.0625">record complete</text><text fill="#000000" font-family="sans-serif" font-size="13" lengthAdjust="spacing" textLength="19.8682" x="1031.04" y="103.1953">set</text><text fill="#000000" font-family="monospace" font-size="13" lengthAdjust="spacing" textLength="125.2266" x="1055.0405" y="103.1953">status=completed</text></g><path d="M19.5,216.86 L1485.8937,216.86 A12.5,12.5 0 0 1 1498.3937,229.36 L1498.3937,243.1569 L7,243.1569 L7,229.36 A12.5,12.5 0 0 1 19.5,216.86" fill="#F1F1F1"/><rect fill="none" height="518.2969" rx="12.5" ry="12.5" style="stroke:#181818;stroke-width:0.5;" width="1491.3937" x="7" y="216.86"/><line style="stroke:#181818;stroke-width:0.5;" x1="7" x2="1498.3937" y1="243.1569" y2="243.1569"/><text fill="#000000" font-family="sans-serif" font-size="14" lengthAdjust="spacing" textLength="90.2139" x="707.5899" y="234.8551">Signal states</text><rect fill="#F1F1F1" height="40" rx="12.5" ry="12.5" style="stroke:#181818;stroke-width:0.5;" width="77.3477" x="664.08" y="357.1569"/><text fill="#000000" font-family="sans-serif" font-size="14" lengthAdjust="spacing" textLength="67.3477" x="669.08" y="382.0036">Signal On</text><rect fill="#F1F1F1" height="40" rx="12.5" ry="12.5" style="stroke:#181818;stroke-width:0.5;" width="159.502" x="19" y="483.6569"/><text fill="#000000" font-family="sans-serif" font-size="14" lengthAdjust="spacing" textLength="149.502" x="24" y="508.5036">Signal Acknowledged</text><rect fill="#F1F1F1" height="40" rx="12.5" ry="12.5" style="stroke:#181818;stroke-width:0.5;" width="113.3936" x="284.05" y="483.6569"/><text fill="#000000" font-family="sans-serif" font-size="14" lengthAdjust="spacing" textLength="103.3936" x="289.05" y="508.5036">Signal Latched</text><rect fill="#F1F1F1" height="40" rx="12.5" ry="12.5" style="stroke:#181818;stroke-width:0.5;" width="108.1436" x="554.68" y="483.6569"/><text fill="#000000" font-family="sans-serif" font-size="14" lengthAdjust="spacing" textLength="98.1436" x="559.68" y="508.5036">Signal Paused</text><rect fill="#F1F1F1" height="40" rx="12.5" ry="12.5" style="stroke:#181818;stroke-width:0.5;" width="78.332" x="651.58" y="610.1569"/><text fill="#000000" font-family="sans-serif" font-size="14" lengthAdjust="spacing" textLength="68.332" x="656.58" y="635.0036">Signal Off</text><ellipse cx="702.75" cy="264.1569" fill="#222222" rx="10" ry="10" style="stroke:#222222;stroke-width:1;"/><ellipse cx="690.75" cy="714.1569" fill="none" rx="11" ry="11" style="stroke:#222222;stroke-width:1;"/><ellipse cx="690.75" cy="714.1569" fill="#222222" rx="6" ry="6" style="stroke:#222222;stroke-width:1;"/><!--link *start*Signal to SignalOn--><g class="link" data-entity-1=".start.Signal" data-entity-2="SignalOn" data-source-line="18" data-uid="lnk9" id="link_.start.Signal_SignalOn"><path d="M702.75,274.6169 C702.75,292.7569 702.75,326.7569 702.75,350.7769" fill="none" id="*start*Signal-to-SignalOn" style="stroke:#181818;stroke-width:1;"/><polygon fill="#181818" points="702.75,356.7769,706.75,347.7769,702.75,351.7769,698.75,347.7769,702.75,356.7769" style="stroke:#181818;stroke-width:1;"/><text fill="#000000" font-family="sans-serif" font-size="13" lengthAdjust="spacing" textLength="79.6377" x="773.7646" y="305.2238">signal starts</text><text fill="#000000" font-family="sans-serif" font-size="13" lengthAdjust="spacing" textLength="19.8682" x="703.75" y="320.3566">set</text><text fill="#000000" font-family="monospace" font-size="13" lengthAdjust="spacing" textLength="195.6665" x="727.7505" y="320.3566">signal.activationState=on</text><text fill="#000000" font-family="sans-serif" font-size="13" lengthAdjust="spacing" textLength="19.8682" x="731.1433" y="335.4894">set</text><text fill="#000000" font-family="monospace" font-size="13" lengthAdjust="spacing" textLength="140.8799" x="755.1438" y="335.4894">signal.presence=on</text></g><!--link SignalOn to SignalOff--><g class="link" data-entity-1="SignalOn" data-entity-2="SignalOff" data-source-line="19" data-uid="lnk10" id="link_SignalOn_SignalOff"><path d="M741.87,379.3869 C829.03,382.5369 1033.18,392.2969 1053.75,415.1569 C1093.15,458.9269 1059.44,551.9769 1009.75,592.1569 C967.64,626.2069 811.77,629.9035 736.13,629.6935" fill="none" id="SignalOn-to-SignalOff" style="stroke:#181818;stroke-width:1;"/><polygon fill="#181818" points="730.13,629.6769,739.1189,633.7018,735.13,629.6908,739.1411,625.7019,730.13,629.6769" style="stroke:#181818;stroke-width:1;"/><text fill="#000000" font-family="sans-serif" font-size="13" lengthAdjust="spacing" textLength="95.5005" x="1109.7833" y="500.7238">condition ends</text><text fill="#000000" font-family="sans-serif" font-size="13" lengthAdjust="spacing" textLength="19.8682" x="1071.18" y="515.8566">set</text><text fill="#000000" font-family="monospace" font-size="13" lengthAdjust="spacing" textLength="148.7065" x="1095.1805" y="515.8566">signal.presence=off</text></g><!--link SignalOn to SignalAck--><g class="link" data-entity-1="SignalOn" data-entity-2="SignalAck" data-source-line="20" data-uid="lnk11" id="link_SignalOn_SignalAck"><path d="M663.66,379.0369 C530.93,382.2169 104.65,394.0269 84.75,415.1569 C67.66,433.2969 75.154,458.1368 84.904,477.8868" fill="none" id="SignalOn-to-SignalAck" style="stroke:#181818;stroke-width:1;"/><polygon fill="#181818" points="87.56,483.2669,87.1627,473.426,85.3467,478.7834,79.9892,476.9674,87.56,483.2669" style="stroke:#181818;stroke-width:1;"/><text fill="#000000" font-family="sans-serif" font-size="13" lengthAdjust="spacing" textLength="136.4175" x="139.1147" y="435.7238">signal acknowledged</text><text fill="#000000" font-family="sans-serif" font-size="13" lengthAdjust="spacing" textLength="19.8682" x="85.75" y="450.8566">set</text><text fill="#000000" font-family="monospace" font-size="13" lengthAdjust="spacing" textLength="219.1465" x="109.7505" y="450.8566">signal.presence=acknowledged</text></g><!--link SignalOn to SignalLatched--><g class="link" data-entity-1="SignalOn" data-entity-2="SignalLatched" data-source-line="21" data-uid="lnk12" id="link_SignalOn_SignalLatched"><path d="M663.77,379.4869 C576.35,382.8569 370.56,393.0569 348.75,415.1569 C331.28,432.8569 331.8047,457.5734 335.2247,477.4934" fill="none" id="SignalOn-to-SignalLatched" style="stroke:#181818;stroke-width:1;"/><polygon fill="#181818" points="336.24,483.4069,338.6594,473.8598,335.3939,478.479,330.7748,475.2135,336.24,483.4069" style="stroke:#181818;stroke-width:1;"/><text fill="#000000" font-family="sans-serif" font-size="13" lengthAdjust="spacing" textLength="95.5005" x="404.0066" y="435.7238">condition ends</text><text fill="#000000" font-family="sans-serif" font-size="13" lengthAdjust="spacing" textLength="19.8682" x="349.75" y="450.8566">set</text><text fill="#000000" font-family="monospace" font-size="13" lengthAdjust="spacing" textLength="180.0132" x="373.7505" y="450.8566">signal.presence=latched</text></g><!--link SignalOn to SignalPaused--><g class="link" data-entity-1="SignalOn" data-entity-2="SignalPaused" data-source-line="22" data-uid="lnk13" id="link_SignalOn_SignalPaused"><path d="M663.72,383.4669 C627.85,389.2369 578.53,399.7469 566.75,415.1569 C554.07,431.7569 558.58,442.9269 566.75,462.1569 C570.16,470.1769 571.6954,473.2178 577.9654,479.2478" fill="none" id="SignalOn-to-SignalPaused" style="stroke:#181818;stroke-width:1;"/><polygon fill="#181818" points="582.29,483.4069,578.5758,474.2852,578.6862,479.941,573.0304,480.0513,582.29,483.4069" style="stroke:#181818;stroke-width:1;"/><text fill="#000000" font-family="sans-serif" font-size="13" lengthAdjust="spacing" textLength="81.8149" x="652.3293" y="428.2238">pause signal</text><text fill="#000000" font-family="sans-serif" font-size="13" lengthAdjust="spacing" textLength="19.8682" x="567.75" y="443.3566">set</text><text fill="#000000" font-family="monospace" font-size="13" lengthAdjust="spacing" textLength="226.9731" x="591.7505" y="443.3566">signal.activationState=paused</text><text fill="#000000" font-family="sans-serif" font-size="13" lengthAdjust="spacing" textLength="19.8682" x="606.8833" y="458.4894">set</text><text fill="#000000" font-family="monospace" font-size="13" lengthAdjust="spacing" textLength="148.7065" x="630.8838" y="458.4894">signal.presence=off</text></g><!--link SignalOn to SignalOff--><g class="link" data-entity-1="SignalOn" data-entity-2="SignalOff" data-source-line="23" data-uid="lnk14" id="link_SignalOn_SignalOff"><path d="M741.8,378.6369 C810.45,380.2369 956.87,386.9669 1076.75,415.1569 C1165.19,435.9469 1301.41,453.8469 1247.75,527.1569 C1186.42,610.9469 853.0184,625.7697 736.2384,628.4397" fill="none" id="SignalOn-to-SignalOff-1" style="stroke:#181818;stroke-width:1;"/><polygon fill="#181818" points="730.24,628.5769,739.3291,632.3701,735.2387,628.4626,739.1462,624.3722,730.24,628.5769" style="stroke:#181818;stroke-width:1;"/><text fill="#000000" font-family="sans-serif" font-size="13" lengthAdjust="spacing" textLength="138.2075" x="1305.5431" y="493.2238">inactivation detected</text><text fill="#000000" font-family="sans-serif" font-size="13" lengthAdjust="spacing" textLength="19.8682" x="1260.9" y="508.3566">set</text><text fill="#000000" font-family="monospace" font-size="13" lengthAdjust="spacing" textLength="203.4932" x="1284.9005" y="508.3566">signal.activationState=off</text><text fill="#000000" font-family="sans-serif" font-size="13" lengthAdjust="spacing" textLength="19.8682" x="1288.2933" y="523.4894">set</text><text fill="#000000" font-family="monospace" font-size="13" lengthAdjust="spacing" textLength="148.7065" x="1312.2938" y="523.4894">signal.presence=off</text></g><!--link SignalAck to SignalOff--><g class="link" data-entity-1="SignalAck" data-entity-2="SignalOff" data-source-line="24" data-uid="lnk15" id="link_SignalAck_SignalOff"><path d="M111.27,523.9869 C126.03,544.9269 152.66,577.3069 184.75,592.1569 C267.48,630.4569 541.2604,631.0755 645.3304,629.8855" fill="none" id="SignalAck-to-SignalOff" style="stroke:#181818;stroke-width:1;"/><polygon fill="#181818" points="651.33,629.8169,642.2849,625.92,646.3303,629.874,642.3763,633.9195,651.33,629.8169" style="stroke:#181818;stroke-width:1;"/><text fill="#000000" font-family="sans-serif" font-size="13" lengthAdjust="spacing" textLength="95.5005" x="224.3533" y="565.7238">condition ends</text><text fill="#000000" font-family="sans-serif" font-size="13" lengthAdjust="spacing" textLength="19.8682" x="185.75" y="580.8566">set</text><text fill="#000000" font-family="monospace" font-size="13" lengthAdjust="spacing" textLength="148.7065" x="209.7505" y="580.8566">signal.presence=off</text></g><!--link SignalLatched to SignalOff--><g class="link" data-entity-1="SignalLatched" data-entity-2="SignalOff" data-source-line="25" data-uid="lnk16" id="link_SignalLatched_SignalOff"><path d="M349.98,523.9869 C360.92,544.5869 381.21,576.3769 408.75,592.1569 C449.24,615.3569 577.6566,624.1849 645.2366,627.3649" fill="none" id="SignalLatched-to-SignalOff" style="stroke:#181818;stroke-width:1;"/><polygon fill="#181818" points="651.23,627.6469,642.428,623.2283,646.2355,627.4119,642.0519,631.2194,651.23,627.6469" style="stroke:#181818;stroke-width:1;"/><text fill="#000000" font-family="sans-serif" font-size="13" lengthAdjust="spacing" textLength="69.4053" x="461.4009" y="565.7238">reset latch</text><text fill="#000000" font-family="sans-serif" font-size="13" lengthAdjust="spacing" textLength="19.8682" x="409.75" y="580.8566">set</text><text fill="#000000" font-family="monospace" font-size="13" lengthAdjust="spacing" textLength="148.7065" x="433.7505" y="580.8566">signal.presence=off</text></g><!--link SignalPaused to SignalOff--><g class="link" data-entity-1="SignalPaused" data-entity-2="SignalOff" data-source-line="26" data-uid="lnk17" id="link_SignalPaused_SignalOff"><path d="M597.93,524.1269 C589,543.1069 579.85,571.9769 593.75,592.1569 C606.74,611.0069 624.8472,618.9809 645.7072,623.5209" fill="none" id="SignalPaused-to-SignalOff" style="stroke:#181818;stroke-width:1;"/><polygon fill="#181818" points="651.57,624.7969,643.6265,618.9744,646.6844,623.7336,641.9252,626.7914,651.57,624.7969" style="stroke:#181818;stroke-width:1;"/><text fill="#000000" font-family="sans-serif" font-size="13" lengthAdjust="spacing" textLength="95.5005" x="633.3533" y="565.7238">condition ends</text><text fill="#000000" font-family="sans-serif" font-size="13" lengthAdjust="spacing" textLength="19.8682" x="594.75" y="580.8566">set</text><text fill="#000000" font-family="monospace" font-size="13" lengthAdjust="spacing" textLength="148.7065" x="618.7505" y="580.8566">signal.presence=off</text></g><!--link SignalPaused to SignalOff--><g class="link" data-entity-1="SignalPaused" data-entity-2="SignalOff" data-source-line="27" data-uid="lnk18" id="link_SignalPaused_SignalOff"><path d="M663.28,511.3769 C704.04,517.6469 754.86,528.5669 767.75,545.1569 C780.57,561.6469 778.87,574.4769 767.75,592.1569 C759.3,605.5869 750.0604,612.1038 735.6504,617.6438" fill="none" id="SignalPaused-to-SignalOff-1" style="stroke:#181818;stroke-width:1;"/><polygon fill="#181818" points="730.05,619.7969,739.886,620.3008,734.717,618.0026,737.0152,612.8337,730.05,619.7969" style="stroke:#181818;stroke-width:1;"/><text fill="#000000" font-family="sans-serif" font-size="13" lengthAdjust="spacing" textLength="138.2075" x="822.3831" y="558.2238">inactivation detected</text><text fill="#000000" font-family="sans-serif" font-size="13" lengthAdjust="spacing" textLength="19.8682" x="777.74" y="573.3566">set</text><text fill="#000000" font-family="monospace" font-size="13" lengthAdjust="spacing" textLength="203.4932" x="801.7405" y="573.3566">signal.activationState=off</text><text fill="#000000" font-family="sans-serif" font-size="13" lengthAdjust="spacing" textLength="19.8682" x="805.1333" y="588.4894">set</text><text fill="#000000" font-family="monospace" font-size="13" lengthAdjust="spacing" textLength="148.7065" x="829.1338" y="588.4894">signal.presence=off</text></g><!--link SignalPaused to SignalOn--><g class="link" data-entity-1="SignalPaused" data-entity-2="SignalOn" data-source-line="28" data-uid="lnk19" id="link_SignalPaused_SignalOn"><path d="M663.11,499.8169 C718.63,495.6569 799.37,485.6369 818.75,462.1569 C832.05,446.0469 831.07,432.0269 818.75,415.1569 C801.29,391.2569 774.1993,383.1349 747.8193,380.0449" fill="none" id="SignalPaused-to-SignalOn" style="stroke:#181818;stroke-width:1;"/><polygon fill="#181818" points="741.86,379.3469,750.3335,384.3668,746.826,379.9286,751.2642,376.4211,741.86,379.3469" style="stroke:#181818;stroke-width:1;"/><text fill="#000000" font-family="sans-serif" font-size="13" lengthAdjust="spacing" textLength="91.603" x="893.392" y="428.2238">resume signal</text><text fill="#000000" font-family="sans-serif" font-size="13" lengthAdjust="spacing" textLength="19.8682" x="829.36" y="443.3566">set</text><text fill="#000000" font-family="monospace" font-size="13" lengthAdjust="spacing" textLength="195.6665" x="853.3605" y="443.3566">signal.activationState=on</text><text fill="#000000" font-family="sans-serif" font-size="13" lengthAdjust="spacing" textLength="19.8682" x="856.7533" y="458.4894">set</text><text fill="#000000" font-family="monospace" font-size="13" lengthAdjust="spacing" textLength="140.8799" x="880.7538" y="458.4894">signal.presence=on</text></g><!--link SignalOff to *end*Signal--><g class="link" data-entity-1="SignalOff" data-entity-2=".end.Signal" data-source-line="29" data-uid="lnk21" id="link_SignalOff_.end.Signal"><path d="M690.75,650.5869 C690.75,667.0669 690.75,684.0569 690.75,697.0869" fill="none" id="SignalOff-to-*end*Signal" style="stroke:#181818;stroke-width:1;"/><polygon fill="#181818" points="690.75,703.0869,694.75,694.0869,690.75,698.0869,686.75,694.0869,690.75,703.0869" style="stroke:#181818;stroke-width:1;"/><text fill="#000000" font-family="sans-serif" font-size="13" lengthAdjust="spacing" textLength="64.0161" x="691.75" y="681.2238">terminate</text></g><!--link Condition to Signal--><g class="link" data-entity-1="Condition" data-entity-2="Signal" data-source-line="31" data-uid="lnk22" id="link_Condition_Signal"><path d="M752.7,140.13 C752.7,162.33 752.7,182.63 752.7,210.58" fill="none" id="Condition-to-Signal" style="stroke:#181818;stroke-width:1;"/><polygon fill="#181818" points="752.7,216.58,756.7,207.58,752.7,211.58,748.7,207.58,752.7,216.58" style="stroke:#181818;stroke-width:1;"/><text fill="#000000" font-family="sans-serif" font-size="13" lengthAdjust="spacing" textLength="106.6406" x="753.7" y="182.9269">triggers (note 1)</text></g><!--SRC=[jLLDQzmm4BtlhnXqIWeEzBgGG2YzbMmXnwO78yrwHRoIaUI44lBVE_gmh9LhQafwasUUtZozfzMUf430y-1-WK3BZHoSr6gtiwvr25-q4j8NeBN0vg_GjGpUTX3NyA0liGzwtimWmtBjdZlvWXLjBB8b-giIA2fmg7diZqy_0HeZkvDhxaeXr2jbPKWjOW-yF9bnzaaPj7eq784R92dYILbqm9ZcV3G65SUR06LiwdZ9exsLgXcCxcY_PLvTFMof8Xwk585As3yCf38BNbPRCwLtOWzMTghjUwcwH6IGQoE8_ppqwB0IF9M9U_UUSdyC5C7mj5mc7Xi7LQ8EPTQnTi-VImHzAltQe-XYU2NqM-luAUMSuAbK8x-texq4nagDEnoF5_AEn_d2a5_v29DfEVxaK2ZUj3wvrllzwBblwKQp2Z9GtZwZqACHcRaH-bNDeqZFMj0B9X9xIPLflATPSbiukiPLOjP89_UtwkjJD2jqAQ8z37wHnFx5s266oFx1akYiL3CblMSEkLkOiaZJaswRw7rlFY3CoUgQowCT16Et4IMJFqBJ2jL_TdGvLKKVnlF6ExFznqZdQV8ZwT2SwMmEwSqh_YAo3l0OUbSxD1QkbAOdvVFrRm00]--></g></svg>