<svg xmlns="http://www.w3.org/2000/svg" xmlns:xlink="http://www.w3.org/1999/xlink" contentStyleType="text/css" data-diagram-type="STATE" height="741px" preserveAspectRatio="none" style="width:1275px;height:741px;background:#FFFFFF;" version="1.1" viewBox="0 0 1275 741" width="1275px" zoomAndPan="magnify"><defs/><g><path d="M180,7 L1089,7 A12.5,12.5 0 0 1 1101.5,19.5 L1101.5,33.2969 L167.5,33.2969 L167.5,19.5 A12.5,12.5 0 0 1 180,7" fill="#F1F1F1"/><rect fill="none" height="132.8628" rx="12.5" ry="12.5" style="stroke:#181818;stroke-width:0.5;" width="934" x="167.5" y="7"/><line style="stroke:#181818;stroke-width:0.5;" x1="167.5" x2="1101.5" y1="33.2969" y2="33.2969"/><text fill="#000000" font-family="sans-serif" font-size="14" lengthAdjust="spacing" textLength="114.0166" x="577.4917" y="24.9951">Condition states</text><rect fill="#F1F1F1" height="40" rx="12.5" ry="12.5" style="stroke:#181818;stroke-width:0.5;" width="100.2959" x="216.35" y="89.8628"/><text fill="#000000" font-family="sans-serif" font-size="14" lengthAdjust="spacing" textLength="90.2959" x="221.35" y="114.7095">No Condition</text><rect fill="#F1F1F1" height="40" rx="12.5" ry="12.5" style="stroke:#181818;stroke-width:0.5;" width="124.8096" x="500.1" y="89.8628"/><text fill="#000000" font-family="sans-serif" font-size="14" lengthAdjust="spacing" textLength="114.8096" x="505.1" y="114.7095">Condition Active</text><rect fill="#F1F1F1" height="40" rx="12.5" ry="12.5" style="stroke:#181818;stroke-width:0.5;" width="125.3633" x="777.82" y="89.8628"/><text fill="#000000" font-family="sans-serif" font-size="14" lengthAdjust="spacing" textLength="115.3633" x="782.82" y="114.7095">Condition Ended</text><ellipse cx="188.5" cy="109.8628" fill="#222222" rx="10" ry="10" style="stroke:#222222;stroke-width:1;"/><ellipse cx="1082.5" cy="109.8628" fill="none" rx="11" ry="11" style="stroke:#222222;stroke-width:1;"/><ellipse cx="1082.5" cy="109.8628" fill="#222222" rx="6" ry="6" style="stroke:#222222;stroke-width:1;"/><!--link *start*Condition to NoCondition--><g class="link" data-entity-1=".start.Condition" data-entity-2="NoCondition" data-source-line="7" data-uid="lnk3" id="link_.start.Condition_NoCondition"><path d="M198.86,109.8628 C204.58,109.8628 204.31,109.8628 210.03,109.8628" fill="none" id="*start*Condition-to-NoCondition" style="stroke:#181818;stroke-width:1;"/><polygon fill="#181818" points="216.03,109.8628,207.03,105.8628,211.03,109.8628,207.03,113.8628,216.03,109.8628" style="stroke:#181818;stroke-width:1;"/></g><!--link NoCondition to ConditionActive--><g class="link" data-entity-1="NoCondition" data-entity-2="ConditionActive" data-source-line="8" data-uid="lnk4" id="link_NoCondition_ConditionActive"><path d="M317.05,109.8628 C367.57,109.8628 439.38,109.8628 493.81,109.8628" fill="none" id="NoCondition-to-ConditionActive" style="stroke:#181818;stroke-width:1;"/><polygon fill="#181818" points="499.81,109.8628,490.81,105.8628,494.81,109.8628,490.81,113.8628,499.81,109.8628" style="stroke:#181818;stroke-width:1;"/><text fill="#000000" font-family="sans-serif" font-size="13" lengthAdjust="spacing" textLength="101.2896" x="358.1654" y="57.9297">condition starts</text><text fill="#000000" font-family="sans-serif" font-size="13" lengthAdjust="spacing" textLength="110.7349" x="353.4428" y="73.0625">resource created</text><text fill="#000000" font-family="sans-serif" font-size="13" lengthAdjust="spacing" textLength="19.8682" x="334.1967" y="88.1953">set</text><text fill="#000000" font-family="monospace" font-size="13" lengthAdjust="spacing" textLength="125.2266" x="358.1971" y="88.1953">occurrence.start</text><text fill="#000000" font-family="sans-serif" font-size="13" lengthAdjust="spacing" textLength="19.8682" x="326.37" y="103.3281">set</text><text fill="#000000" font-family="monospace" font-size="13" lengthAdjust="spacing" textLength="140.8799" x="350.3705" y="103.3281">status=in-progress</text></g><!--link ConditionActive to ConditionEnded--><g class="link" data-entity-1="ConditionActive" data-entity-2="ConditionEnded" data-source-line="9" data-uid="lnk5" id="link_ConditionActive_ConditionEnded"><path d="M625.24,109.8628 C670.72,109.8628 725.97,109.8628 771.51,109.8628" fill="none" id="ConditionActive-to-ConditionEnded" style="stroke:#181818;stroke-width:1;"/><polygon fill="#181818" points="777.51,109.8628,768.51,105.8628,772.51,109.8628,768.51,113.8628,777.51,109.8628" style="stroke:#181818;stroke-width:1;"/><text fill="#000000" font-family="sans-serif" font-size="13" lengthAdjust="spacing" textLength="95.5005" x="653.8966" y="87.9297">condition ends</text><text fill="#000000" font-family="sans-serif" font-size="13" lengthAdjust="spacing" textLength="19.8682" x="634.86" y="103.0625">set</text><text fill="#000000" font-family="monospace" font-size="13" lengthAdjust="spacing" textLength="109.5732" x="658.8605" y="103.0625">occurrence.end</text></g><!--link ConditionEnded to *end*Condition--><g class="link" data-entity-1="ConditionEnded" data-entity-2=".end.Condition" data-source-line="10" data-uid="lnk7" id="link_ConditionEnded_.end.Condition"><path d="M903.45,109.8628 C961.15,109.8628 1035.93,109.8628 1065.28,109.8628" fill="none" id="ConditionEnded-to-*end*Condition" style="stroke:#181818;stroke-width:1;"/><polygon fill="#181818" points="1071.28,109.8628,1062.28,105.8628,1066.28,109.8628,1062.28,113.8628,1071.28,109.8628" style="stroke:#181818;stroke-width:1;"/><text fill="#000000" font-family="sans-serif" font-size="13" lengthAdjust="spacing" textLength="93.9517" x="940.4777" y="72.9297">signaling ends</text><text fill="#000000" font-family="sans-serif" font-size="13" lengthAdjust="spacing" textLength="106.8945" x="934.0063" y="88.0625">record complete</text><text fill="#000000" font-family="sans-serif" font-size="13" lengthAdjust="spacing" textLength="19.8682" x="912.84" y="103.1953">set</text><text fill="#000000" font-family="monospace" font-size="13" lengthAdjust="spacing" textLength="125.2266" x="936.8405" y="103.1953">status=completed</text></g><path d="M19.5,216.86 L1249.5037,216.86 A12.5,12.5 0 0 1 1262.0037,229.36 L1262.0037,243.1569 L7,243.1569 L7,229.36 A12.5,12.5 0 0 1 19.5,216.86" fill="#F1F1F1"/><rect fill="none" height="518.2969" rx="12.5" ry="12.5" style="stroke:#181818;stroke-width:0.5;" width="1255.0037" x="7" y="216.86"/><line style="stroke:#181818;stroke-width:0.5;" x1="7" x2="1262.0037" y1="243.1569" y2="243.1569"/><text fill="#000000" font-family="sans-serif" font-size="14" lengthAdjust="spacing" textLength="150.4863" x="559.2587" y="234.8551">Signal states (note 2)</text><rect fill="#F1F1F1" height="40" rx="12.5" ry="12.5" style="stroke:#181818;stroke-width:0.5;" width="77.3477" x="475.08" y="357.1569"/><text fill="#000000" font-family="sans-serif" font-size="14" lengthAdjust="spacing" textLength="67.3477" x="480.08" y="382.0036">Signal On</text><rect fill="#F1F1F1" height="40" rx="12.5" ry="12.5" style="stroke:#181818;stroke-width:0.5;" width="159.502" x="19" y="483.6569"/><text fill="#000000" font-family="sans-serif" font-size="14" lengthAdjust="spacing" textLength="149.502" x="24" y="508.5036">Signal Acknowledged</text><rect fill="#F1F1F1" height="40" rx="12.5" ry="12.5" style="stroke:#181818;stroke-width:0.5;" width="78.332" x="474.58" y="610.1569"/><text fill="#000000" font-family="sans-serif" font-size="14" lengthAdjust="spacing" textLength="68.332" x="479.58" y="635.0036">Signal Off</text><rect fill="#F1F1F1" height="40" rx="12.5" ry="12.5" style="stroke:#181818;stroke-width:0.5;" width="108.1436" x="744.68" y="483.6569"/><text fill="#000000" font-family="sans-serif" font-size="14" lengthAdjust="spacing" textLength="98.1436" x="749.68" y="508.5036">Signal Paused</text><rect fill="#F1F1F1" height="40" rx="12.5" ry="12.5" style="stroke:#181818;stroke-width:0.5;" width="113.3936" x="989.05" y="483.6569"/><text fill="#000000" font-family="sans-serif" font-size="14" lengthAdjust="spacing" textLength="103.3936" x="994.05" y="508.5036">Signal Latched</text><ellipse cx="513.75" cy="264.1569" fill="#222222" rx="10" ry="10" style="stroke:#222222;stroke-width:1;"/><ellipse cx="513.75" cy="714.1569" fill="none" rx="11" ry="11" style="stroke:#222222;stroke-width:1;"/><ellipse cx="513.75" cy="714.1569" fill="#222222" rx="6" ry="6" style="stroke:#222222;stroke-width:1;"/><!--link *start*Signal to SignalOn--><g class="link" data-entity-1=".start.Signal" data-entity-2="SignalOn" data-source-line="18" data-uid="lnk9" id="link_.start.Signal_SignalOn"><path d="M513.75,274.6169 C513.75,292.7569 513.75,326.7569 513.75,350.7769" fill="none" id="*start*Signal-to-SignalOn" style="stroke:#181818;stroke-width:1;"/><polygon fill="#181818" points="513.75,356.7769,517.75,347.7769,513.75,351.7769,509.75,347.7769,513.75,356.7769" style="stroke:#181818;stroke-width:1;"/><text fill="#000000" font-family="sans-serif" font-size="13" lengthAdjust="spacing" textLength="79.6377" x="514.75" y="305.2238">signal starts</text><text fill="#000000" font-family="sans-serif" font-size="13" lengthAdjust="spacing" textLength="19.8682" x="514.75" y="320.3566">set</text><text fill="#000000" font-family="monospace" font-size="13" lengthAdjust="spacing" textLength="140.8799" x="538.7505" y="320.3566">signal.presence=on</text><text fill="#000000" font-family="sans-serif" font-size="13" lengthAdjust="spacing" textLength="19.8682" x="514.75" y="335.4894">set</text><text fill="#000000" font-family="monospace" font-size="13" lengthAdjust="spacing" textLength="195.6665" x="538.7505" y="335.4894">signal.activationState=on</text></g><!--link SignalOn to SignalOff--><g class="link" data-entity-1="SignalOn" data-entity-2="SignalOff" data-source-line="19" data-uid="lnk10" id="link_SignalOn_SignalOff"><path d="M474.93,384.1569 C424.89,394.1969 339.79,419.6469 301.75,480.1569 C255.31,554.0469 395.1855,600.0367 468.4855,618.6967" fill="none" id="SignalOn-to-SignalOff" style="stroke:#181818;stroke-width:1;"/><polygon fill="#181818" points="474.3,620.1769,466.565,614.0802,469.4545,618.9434,464.5914,621.8329,474.3,620.1769" style="stroke:#181818;stroke-width:1;"/><text fill="#000000" font-family="sans-serif" font-size="13" lengthAdjust="spacing" textLength="95.5005" x="302.75" y="500.7238">condition ends</text><text fill="#000000" font-family="sans-serif" font-size="13" lengthAdjust="spacing" textLength="19.8682" x="302.75" y="515.8566">set</text><text fill="#000000" font-family="monospace" font-size="13" lengthAdjust="spacing" textLength="148.7065" x="326.7505" y="515.8566">signal.presence=off</text></g><!--link SignalOn to SignalAck--><g class="link" data-entity-1="SignalOn" data-entity-2="SignalAck" data-source-line="20" data-uid="lnk11" id="link_SignalOn_SignalAck"><path d="M474.72,378.7269 C376.46,380.5769 124.93,387.9469 99.75,415.1569 C83.04,433.2269 85.5483,457.6657 90.7683,477.4357" fill="none" id="SignalOn-to-SignalAck" style="stroke:#181818;stroke-width:1;"/><polygon fill="#181818" points="92.3,483.2369,93.8699,473.5139,91.0236,478.4025,86.135,475.5562,92.3,483.2369" style="stroke:#181818;stroke-width:1;"/><text fill="#000000" font-family="sans-serif" font-size="13" lengthAdjust="spacing" textLength="136.4175" x="100.75" y="435.7238">signal acknowledged</text><text fill="#000000" font-family="sans-serif" font-size="13" lengthAdjust="spacing" textLength="19.8682" x="100.75" y="450.8566">set</text><text fill="#000000" font-family="monospace" font-size="13" lengthAdjust="spacing" textLength="148.7065" x="124.7505" y="450.8566">signal.presence=ack</text></g><!--link SignalOn to SignalLatched--><g class="link" data-entity-1="SignalOn" data-entity-2="SignalLatched" data-source-line="21" data-uid="lnk12" id="link_SignalOn_SignalLatched"><path d="M552.84,378.3269 C666.51,379.1869 991.21,384.3269 1026.75,415.1569 C1046.01,431.8569 1048.6207,457.0813 1047.8407,477.3513" fill="none" id="SignalOn-to-SignalLatched" style="stroke:#181818;stroke-width:1;"/><polygon fill="#181818" points="1047.61,483.3469,1051.9531,474.5073,1047.8023,478.3506,1043.959,474.1997,1047.61,483.3469" style="stroke:#181818;stroke-width:1;"/><text fill="#000000" font-family="sans-serif" font-size="13" lengthAdjust="spacing" textLength="95.5005" x="1047.99" y="435.7238">condition ends</text><text fill="#000000" font-family="sans-serif" font-size="13" lengthAdjust="spacing" textLength="19.8682" x="1047.99" y="450.8566">set</text><text fill="#000000" font-family="monospace" font-size="13" lengthAdjust="spacing" textLength="180.0132" x="1071.9905" y="450.8566">signal.presence=latched</text></g><!--link SignalOn to SignalPaused--><g class="link" data-entity-1="SignalOn" data-entity-2="SignalPaused" data-source-line="22" data-uid="lnk13" id="link_SignalOn_SignalPaused"><path d="M511.93,397.3369 C511.26,416.7569 513.67,446.1369 531.75,462.1569 C564.99,491.5969 687.28,471.1269 730.75,480.1569 C735.26,481.0969 734.0923,480.645 738.7023,481.905" fill="none" id="SignalOn-to-SignalPaused" style="stroke:#181818;stroke-width:1;"/><polygon fill="#181818" points="744.49,483.4869,736.863,477.2556,739.6669,482.1686,734.7538,484.9725,744.49,483.4869" style="stroke:#181818;stroke-width:1;"/><text fill="#000000" font-family="sans-serif" font-size="13" lengthAdjust="spacing" textLength="81.8149" x="532.75" y="428.2238">pause signal</text><text fill="#000000" font-family="sans-serif" font-size="13" lengthAdjust="spacing" textLength="19.8682" x="532.75" y="443.3566">set</text><text fill="#000000" font-family="monospace" font-size="13" lengthAdjust="spacing" textLength="148.7065" x="556.7505" y="443.3566">signal.presence=off</text><text fill="#000000" font-family="sans-serif" font-size="13" lengthAdjust="spacing" textLength="19.8682" x="532.75" y="458.4894">set</text><text fill="#000000" font-family="monospace" font-size="13" lengthAdjust="spacing" textLength="226.9731" x="556.7505" y="458.4894">signal.activationState=paused</text></g><!--link SignalOn to SignalOff--><g class="link" data-entity-1="SignalOn" data-entity-2="SignalOff" data-source-line="23" data-uid="lnk14" id="link_SignalOn_SignalOff"><path d="M512.04,397.3169 C510.31,417.7969 507.74,451.2369 506.75,480.1569 C506.04,501.0369 506.04,506.2769 506.75,527.1569 C507.74,556.0769 509.805,583.5382 511.535,604.0182" fill="none" id="SignalOn-to-SignalOff-1" style="stroke:#181818;stroke-width:1;"/><polygon fill="#181818" points="512.04,609.9969,515.2682,600.6921,511.6191,605.0146,507.2966,601.3655,512.04,609.9969" style="stroke:#181818;stroke-width:1;"/><text fill="#000000" font-family="sans-serif" font-size="13" lengthAdjust="spacing" textLength="138.2075" x="507.75" y="493.2238">inactivation detected</text><text fill="#000000" font-family="sans-serif" font-size="13" lengthAdjust="spacing" textLength="19.8682" x="507.75" y="508.3566">set</text><text fill="#000000" font-family="monospace" font-size="13" lengthAdjust="spacing" textLength="148.7065" x="531.7505" y="508.3566">signal.presence=off</text><text fill="#000000" font-family="sans-serif" font-size="13" lengthAdjust="spacing" textLength="19.8682" x="507.75" y="523.4894">set</text><text fill="#000000" font-family="monospace" font-size="13" lengthAdjust="spacing" textLength="203.4932" x="531.7505" y="523.4894">signal.activationState=off</text></g><!--link SignalAck to SignalOff--><g class="link" data-entity-1="SignalAck" data-entity-2="SignalOff" data-source-line="24" data-uid="lnk15" id="link_SignalAck_SignalOff"><path d="M92.3,524.0769 C87.08,543.8469 83.04,574.0869 99.75,592.1569 C124.9,619.3369 369.8511,626.6036 468.3611,628.4636" fill="none" id="SignalAck-to-SignalOff" style="stroke:#181818;stroke-width:1;"/><polygon fill="#181818" points="474.36,628.5769,465.4371,624.4077,469.3609,628.4825,465.2861,632.4063,474.36,628.5769" style="stroke:#181818;stroke-width:1;"/><text fill="#000000" font-family="sans-serif" font-size="13" lengthAdjust="spacing" textLength="95.5005" x="100.75" y="565.7238">condition ends</text><text fill="#000000" font-family="sans-serif" font-size="13" lengthAdjust="spacing" textLength="19.8682" x="100.75" y="580.8566">set</text><text fill="#000000" font-family="monospace" font-size="13" lengthAdjust="spacing" textLength="148.7065" x="124.7505" y="580.8566">signal.presence=off</text></g><!--link SignalLatched to SignalOff--><g class="link" data-entity-1="SignalLatched" data-entity-2="SignalOff" data-source-line="25" data-uid="lnk16" id="link_SignalLatched_SignalOff"><path d="M1045.7,524.1469 C1044.49,544.5769 1039.15,575.9169 1018.75,592.1569 C982.64,620.8969 671.9495,627.3123 559.3095,628.7123" fill="none" id="SignalLatched-to-SignalOff" style="stroke:#181818;stroke-width:1;"/><polygon fill="#181818" points="553.31,628.7869,562.359,632.6747,558.3096,628.7247,562.2596,624.6753,553.31,628.7869" style="stroke:#181818;stroke-width:1;"/><text fill="#000000" font-family="sans-serif" font-size="13" lengthAdjust="spacing" textLength="69.4053" x="1044.01" y="565.7238">reset latch</text><text fill="#000000" font-family="sans-serif" font-size="13" lengthAdjust="spacing" textLength="19.8682" x="1044.01" y="580.8566">set</text><text fill="#000000" font-family="monospace" font-size="13" lengthAdjust="spacing" textLength="148.7065" x="1068.0105" y="580.8566">signal.presence=off</text></g><!--link SignalPaused to SignalOff--><g class="link" data-entity-1="SignalPaused" data-entity-2="SignalOff" data-source-line="26" data-uid="lnk17" id="link_SignalPaused_SignalOff"><path d="M744.46,523.6669 C739.85,524.9669 735.24,526.1469 730.75,527.1569 C666.53,541.5669 641.55,513.6569 583.75,545.1569 C556.58,559.9669 538.6631,584.79 527.0331,604.64" fill="none" id="SignalPaused-to-SignalOff" style="stroke:#181818;stroke-width:1;"/><polygon fill="#181818" points="524,609.8169,532.0009,604.0736,526.5276,605.5028,525.0984,600.0295,524,609.8169" style="stroke:#181818;stroke-width:1;"/><text fill="#000000" font-family="sans-serif" font-size="13" lengthAdjust="spacing" textLength="95.5005" x="584.75" y="565.7238">condition ends</text><text fill="#000000" font-family="sans-serif" font-size="13" lengthAdjust="spacing" textLength="19.8682" x="584.75" y="580.8566">set</text><text fill="#000000" font-family="monospace" font-size="13" lengthAdjust="spacing" textLength="148.7065" x="608.7505" y="580.8566">signal.presence=off</text></g><!--link SignalPaused to SignalOff--><g class="link" data-entity-1="SignalPaused" data-entity-2="SignalOff" data-source-line="27" data-uid="lnk18" id="link_SignalPaused_SignalOff"><path d="M795.21,524.0569 C790.42,544.4169 779.79,575.6969 757.75,592.1569 C726.17,615.7469 619.9323,624.2325 559.2923,627.3125" fill="none" id="SignalPaused-to-SignalOff-1" style="stroke:#181818;stroke-width:1;"/><polygon fill="#181818" points="553.3,627.6169,562.4913,631.1552,558.2936,627.3632,562.0855,623.1655,553.3,627.6169" style="stroke:#181818;stroke-width:1;"/><text fill="#000000" font-family="sans-serif" font-size="13" lengthAdjust="spacing" textLength="138.2075" x="789.82" y="558.2238">inactivation detected</text><text fill="#000000" font-family="sans-serif" font-size="13" lengthAdjust="spacing" textLength="19.8682" x="789.82" y="573.3566">set</text><text fill="#000000" font-family="monospace" font-size="13" lengthAdjust="spacing" textLength="148.7065" x="813.8205" y="573.3566">signal.presence=off</text><text fill="#000000" font-family="sans-serif" font-size="13" lengthAdjust="spacing" textLength="19.8682" x="789.82" y="588.4894">set</text><text fill="#000000" font-family="monospace" font-size="13" lengthAdjust="spacing" textLength="203.4932" x="813.8205" y="588.4894">signal.activationState=off</text></g><!--link SignalPaused to SignalOn--><g class="link" data-entity-1="SignalPaused" data-entity-2="SignalOn" data-source-line="28" data-uid="lnk19" id="link_SignalPaused_SignalOn"><path d="M801.4,483.3169 C802.95,463.3169 801.81,432.6169 783.75,415.1569 C751.57,384.0369 625.4097,378.7662 558.6797,378.1062" fill="none" id="SignalPaused-to-SignalOn" style="stroke:#181818;stroke-width:1;"/><polygon fill="#181818" points="552.68,378.0469,561.64,382.1357,557.6798,378.0963,561.7191,374.1361,552.68,378.0469" style="stroke:#181818;stroke-width:1;"/><text fill="#000000" font-family="sans-serif" font-size="13" lengthAdjust="spacing" textLength="91.603" x="802.49" y="428.2238">resume signal</text><text fill="#000000" font-family="sans-serif" font-size="13" lengthAdjust="spacing" textLength="19.8682" x="802.49" y="443.3566">set</text><text fill="#000000" font-family="monospace" font-size="13" lengthAdjust="spacing" textLength="140.8799" x="826.4905" y="443.3566">signal.presence=on</text><text fill="#000000" font-family="sans-serif" font-size="13" lengthAdjust="spacing" textLength="19.8682" x="802.49" y="458.4894">set</text><text fill="#000000" font-family="monospace" font-size="13" lengthAdjust="spacing" textLength="195.6665" x="826.4905" y="458.4894">signal.activationState=on</text></g><!--link SignalOff to *end*Signal--><g class="link" data-entity-1="SignalOff" data-entity-2=".end.Signal" data-source-line="29" data-uid="lnk21" id="link_SignalOff_.end.Signal"><path d="M513.75,650.5869 C513.75,667.0669 513.75,684.0569 513.75,697.0869" fill="none" id="SignalOff-to-*end*Signal" style="stroke:#181818;stroke-width:1;"/><polygon fill="#181818" points="513.75,703.0869,517.75,694.0869,513.75,698.0869,509.75,694.0869,513.75,703.0869" style="stroke:#181818;stroke-width:1;"/><text fill="#000000" font-family="sans-serif" font-size="13" lengthAdjust="spacing" textLength="64.0161" x="514.75" y="681.2238">terminate</text></g><!--link Condition to Signal--><g class="link" data-entity-1="Condition" data-entity-2="Signal" data-source-line="31" data-uid="lnk22" id="link_Condition_Signal"><path d="M634.5,140.13 C634.5,162.33 634.5,182.63 634.5,210.58" fill="none" id="Condition-to-Signal" style="stroke:#181818;stroke-width:1;"/><polygon fill="#181818" points="634.5,216.58,638.5,207.58,634.5,211.58,630.5,207.58,634.5,216.58" style="stroke:#181818;stroke-width:1;"/><text fill="#000000" font-family="sans-serif" font-size="13" lengthAdjust="spacing" textLength="106.6406" x="635.5" y="182.9269">triggers (note 1)</text></g><!--SRC=[jLLDIomn4BplhsXoqWShw7711oBUH0MF-Wv3qZiRd4s69AE8-D_jV4msatLq7-WjqwbKLrTbinif473RkrSGQBcHlPDQBHRMDGxXKYiXVG4Q2spt5NOjWxS5n3NSw2dsHkyECyYmNBlWJZvZHHkBR1zzfGIA2Xng7llmvn_0qiXsuvP_Io6qLyhAa5h42dWvcN7sKHcqUZ0SWHiaAU9HMNJ0cEPyC0OLnvC0PMpSyP87UoxLiZUwfVEMUNLritqLSRXI12fXFsb8PHQyh8vcIk_42gniLTD9rIOUWrmRGVJRlaE7bTwnJDIBznJxVM08VgTb31oEbARji-Co-OYuLINyjimyrYxuKucWJwLVEXHj3772jLvFoDRh6d7N33PTY0IAbHfttJY-cG9JQNTnoBSymcZUU0swP5KedlGKgW_YdAuqg_OQdsxZCxdt_GE4McJceWrDjnVsN2CQVOR6-vdbDeMRSro4cUCQRJfKLfSydA5BwQoWzukaySiHlp6pZ-5-QQXKkrFqb3daRjwBGvfElVTs_qI6ezKrbqSx2COUHfHC_WbDCrI_xEX-LnLz6BRVtfd__VtHFClyFZeqMvhD8RrtnRz3rW4UGqzgYsPyyKwFFm00]--></g></svg>