<?xml version="1.0" encoding="UTF-8" standalone="no"?><svg xmlns="http://www.w3.org/2000/svg" xmlns:xlink="http://www.w3.org/1999/xlink" contentStyleType="text/css" height="196px" preserveAspectRatio="none" style="width:475px;height:196px;background:#FFFFFF;" version="1.1" viewBox="0 0 475 196" width="475px" zoomAndPan="magnify"><defs/><g><rect fill="none" height="90.2031" style="stroke:#000000;stroke-width:1.5;" width="458.5" x="10" y="82.4297"/><line style="stroke:#181818;stroke-width:0.5;stroke-dasharray:5.0,5.0;" x1="82" x2="82" y1="36.2969" y2="189.6328"/><line style="stroke:#181818;stroke-width:0.5;stroke-dasharray:5.0,5.0;" x1="407.5" x2="407.5" y1="36.2969" y2="189.6328"/><rect fill="#E2E2F0" height="30.2969" rx="2.5" ry="2.5" style="stroke:#181818;stroke-width:0.5;" width="124" x="20" y="5"/><text fill="#000000" font-family="sans-serif" font-size="14" lengthAdjust="spacing" textLength="110" x="27" y="24.9951">Data Consumer</text><rect fill="#E2E2F0" height="30.2969" rx="2.5" ry="2.5" style="stroke:#181818;stroke-width:0.5;" width="101" x="357.5" y="5"/><text fill="#000000" font-family="sans-serif" font-size="14" lengthAdjust="spacing" textLength="87" x="364.5" y="24.9951">Data Source</text><polygon fill="#181818" points="396,63.4297,406,67.4297,396,71.4297,400,67.4297" style="stroke:#181818;stroke-width:1.0;"/><line style="stroke:#181818;stroke-width:1.0;" x1="82" x2="402" y1="67.4297" y2="67.4297"/><text fill="#000000" font-family="sans-serif" font-size="13" lengthAdjust="spacing" textLength="188" x="89" y="62.3638">1a. Request data (POST/GET)</text><path d="M10,82.4297 L76,82.4297 L76,89.5625 L66,99.5625 L10,99.5625 L10,82.4297 " fill="#EEEEEE" style="stroke:#000000;stroke-width:1.5;"/><rect fill="none" height="90.2031" style="stroke:#000000;stroke-width:1.5;" width="458.5" x="10" y="82.4297"/><text fill="#000000" font-family="sans-serif" font-size="13" font-weight="bold" lengthAdjust="spacing" textLength="21" x="25" y="95.4966">alt</text><text fill="#000000" font-family="sans-serif" font-size="11" font-weight="bold" lengthAdjust="spacing" textLength="156" x="91" y="94.6401">[Successful invocation]</text><polygon fill="#181818" points="93,116.6953,83,120.6953,93,124.6953,89,120.6953" style="stroke:#181818;stroke-width:1.0;"/><line style="stroke:#181818;stroke-width:1.0;stroke-dasharray:2.0,2.0;" x1="87" x2="407" y1="120.6953" y2="120.6953"/><text fill="#000000" font-family="sans-serif" font-size="13" lengthAdjust="spacing" textLength="290" x="99" y="115.6294">1b. RESTful response containing desired data</text><line style="stroke:#000000;stroke-width:1.0;stroke-dasharray:2.0,2.0;" x1="10" x2="468.5" y1="129.6953" y2="129.6953"/><text fill="#000000" font-family="sans-serif" font-size="11" font-weight="bold" lengthAdjust="spacing" textLength="55" x="15" y="139.9058">[Failure]</text><polygon fill="#181818" points="93,160.6328,83,164.6328,93,168.6328,89,164.6328" style="stroke:#181818;stroke-width:1.0;"/><line style="stroke:#181818;stroke-width:1.0;stroke-dasharray:2.0,2.0;" x1="87" x2="407" y1="164.6328" y2="164.6328"/><text fill="#000000" font-family="sans-serif" font-size="13" lengthAdjust="spacing" textLength="302" x="99" y="159.5669">1c. OperationOutcome indicating failure reason</text><!--MD5=[6427aa94e0f4e838e9f6ffb61bc4a3f4]
@startuml
hide footbox
participant "Data Consumer" as Consumer
participant "Data Source" as Source
Consumer -> Source: 1a. Request data (POST/GET)
alt Successful invocation
  Consumer <- - Source: 1b. RESTful response containing desired data
else Failure
  Consumer <- - Source: 1c. OperationOutcome indicating failure reason
end
@enduml

PlantUML version 1.2022.8beta2(Unknown compile time)
(GPL source distribution)
Java Runtime: Java(TM) SE Runtime Environment
JVM: Java HotSpot(TM) 64-Bit Server VM
Default Encoding: UTF-8
Language: en
Country: US
--></g></svg>