<?xml version="1.0" encoding="UTF-8" standalone="no"?><svg xmlns="http://www.w3.org/2000/svg" xmlns:xlink="http://www.w3.org/1999/xlink" contentStyleType="text/css" height="567px" preserveAspectRatio="none" style="width:719px;height:567px;background:#FFFFFF;" version="1.1" viewBox="0 0 719 567" width="719px" zoomAndPan="magnify"><defs/><g><rect fill="none" height="131.5313" style="stroke:#000000;stroke-width:1.5;" width="654" x="10" y="110.4297"/><rect fill="none" height="75.3984" style="stroke:#000000;stroke-width:1.5;" width="593.5" x="10" y="468.4922"/><line style="stroke:#181818;stroke-width:0.5;stroke-dasharray:5.0,5.0;" x1="82" x2="82" y1="36.2969" y2="75.4297"/><line style="stroke:#A80036;stroke-width:1.0;stroke-dasharray:1.0,4.0;" x1="82" x2="82" y1="75.4297" y2="103.4297"/><line style="stroke:#181818;stroke-width:0.5;stroke-dasharray:5.0,5.0;" x1="82" x2="82" y1="103.4297" y2="184.8281"/><line style="stroke:#A80036;stroke-width:1.0;stroke-dasharray:1.0,4.0;" x1="82" x2="82" y1="184.8281" y2="212.8281"/><line style="stroke:#181818;stroke-width:0.5;stroke-dasharray:5.0,5.0;" x1="82" x2="82" y1="212.8281" y2="248.9609"/><line style="stroke:#A80036;stroke-width:1.0;stroke-dasharray:1.0,4.0;" x1="82" x2="82" y1="248.9609" y2="276.9609"/><line style="stroke:#181818;stroke-width:0.5;stroke-dasharray:5.0,5.0;" x1="82" x2="82" y1="276.9609" y2="319.0938"/><line style="stroke:#A80036;stroke-width:1.0;stroke-dasharray:1.0,4.0;" x1="82" x2="82" y1="319.0938" y2="347.0938"/><line style="stroke:#181818;stroke-width:0.5;stroke-dasharray:5.0,5.0;" x1="82" x2="82" y1="347.0938" y2="404.3594"/><line style="stroke:#A80036;stroke-width:1.0;stroke-dasharray:1.0,4.0;" x1="82" x2="82" y1="404.3594" y2="432.3594"/><line style="stroke:#181818;stroke-width:0.5;stroke-dasharray:5.0,5.0;" x1="82" x2="82" y1="432.3594" y2="560.8906"/><line style="stroke:#181818;stroke-width:0.5;stroke-dasharray:5.0,5.0;" x1="542.5" x2="542.5" y1="36.2969" y2="75.4297"/><line style="stroke:#A80036;stroke-width:1.0;stroke-dasharray:1.0,4.0;" x1="542.5" x2="542.5" y1="75.4297" y2="103.4297"/><line style="stroke:#181818;stroke-width:0.5;stroke-dasharray:5.0,5.0;" x1="542.5" x2="542.5" y1="103.4297" y2="184.8281"/><line style="stroke:#A80036;stroke-width:1.0;stroke-dasharray:1.0,4.0;" x1="542.5" x2="542.5" y1="184.8281" y2="212.8281"/><line style="stroke:#181818;stroke-width:0.5;stroke-dasharray:5.0,5.0;" x1="542.5" x2="542.5" y1="212.8281" y2="248.9609"/><line style="stroke:#A80036;stroke-width:1.0;stroke-dasharray:1.0,4.0;" x1="542.5" x2="542.5" y1="248.9609" y2="276.9609"/><line style="stroke:#181818;stroke-width:0.5;stroke-dasharray:5.0,5.0;" x1="542.5" x2="542.5" y1="276.9609" y2="319.0938"/><line style="stroke:#A80036;stroke-width:1.0;stroke-dasharray:1.0,4.0;" x1="542.5" x2="542.5" y1="319.0938" y2="347.0938"/><line style="stroke:#181818;stroke-width:0.5;stroke-dasharray:5.0,5.0;" x1="542.5" x2="542.5" y1="347.0938" y2="404.3594"/><line style="stroke:#A80036;stroke-width:1.0;stroke-dasharray:1.0,4.0;" x1="542.5" x2="542.5" y1="404.3594" y2="432.3594"/><line style="stroke:#181818;stroke-width:0.5;stroke-dasharray:5.0,5.0;" x1="542.5" x2="542.5" y1="432.3594" y2="560.8906"/><rect fill="#E2E2F0" height="30.2969" rx="2.5" ry="2.5" style="stroke:#181818;stroke-width:0.5;" width="124" x="20" y="5"/><text fill="#000000" font-family="sans-serif" font-size="14" lengthAdjust="spacing" textLength="110" x="27" y="24.9951">Data Consumer</text><rect fill="#E2E2F0" height="30.2969" rx="2.5" ry="2.5" style="stroke:#181818;stroke-width:0.5;" width="101" x="492.5" y="5"/><text fill="#000000" font-family="sans-serif" font-size="14" lengthAdjust="spacing" textLength="87" x="499.5" y="24.9951">Data Source</text><polygon fill="#181818" points="531,63.4297,541,67.4297,531,71.4297,535,67.4297" style="stroke:#181818;stroke-width:1.0;"/><line style="stroke:#181818;stroke-width:1.0;" x1="82" x2="537" y1="67.4297" y2="67.4297"/><a href="#task1" target="_top" title="#task1" xlink:actuate="onRequest" xlink:href="#task1" xlink:show="new" xlink:title="#task1" xlink:type="simple"><text fill="#0000FF" font-family="sans-serif" font-size="13" lengthAdjust="spacing" text-decoration="underline" textLength="12" x="89" y="62.3638">1.</text></a><text fill="#000000" font-family="sans-serif" font-size="13" lengthAdjust="spacing" textLength="286" x="105" y="62.3638">POST Task [t1] (self-describing desired data)</text><path d="M10,110.4297 L82,110.4297 L82,117.5625 L72,127.5625 L10,127.5625 L10,110.4297 " fill="#EEEEEE" style="stroke:#000000;stroke-width:1.5;"/><rect fill="none" height="131.5313" style="stroke:#000000;stroke-width:1.5;" width="654" x="10" y="110.4297"/><text fill="#000000" font-family="sans-serif" font-size="13" font-weight="bold" lengthAdjust="spacing" textLength="27" x="25" y="123.4966">opt</text><line style="stroke:#181818;stroke-width:1.0;" x1="543" x2="585" y1="163.8281" y2="163.8281"/><line style="stroke:#181818;stroke-width:1.0;" x1="585" x2="585" y1="163.8281" y2="176.8281"/><line style="stroke:#181818;stroke-width:1.0;" x1="544" x2="585" y1="176.8281" y2="176.8281"/><polygon fill="#181818" points="554,172.8281,544,176.8281,554,180.8281,550,176.8281" style="stroke:#181818;stroke-width:1.0;"/><a href="#task2" target="_top" title="#task2" xlink:actuate="onRequest" xlink:href="#task2" xlink:show="new" xlink:title="#task2" xlink:type="simple"><text fill="#0000FF" font-family="sans-serif" font-size="13" lengthAdjust="spacing" text-decoration="underline" textLength="12" x="550" y="143.6294">2.</text></a><text fill="#000000" font-family="sans-serif" font-size="13" lengthAdjust="spacing" textLength="86" x="566" y="143.6294">PUT Task [t1]</text><text fill="#000000" font-family="sans-serif" font-size="13" lengthAdjust="spacing" textLength="89" x="554" y="158.7622">update status</text><polygon fill="#181818" points="93,229.9609,83,233.9609,93,237.9609,89,233.9609" style="stroke:#181818;stroke-width:1.0;"/><polygon fill="#181818" points="531,229.9609,541,233.9609,531,237.9609,535,233.9609" style="stroke:#181818;stroke-width:1.0;"/><line style="stroke:#181818;stroke-width:1.0;" x1="87" x2="537" y1="233.9609" y2="233.9609"/><a href="#task3" target="_top" title="#task3" xlink:actuate="onRequest" xlink:href="#task3" xlink:show="new" xlink:title="#task3" xlink:type="simple"><text fill="#0000FF" font-family="sans-serif" font-size="13" lengthAdjust="spacing" text-decoration="underline" textLength="12" x="99" y="228.895">3.</text></a><text fill="#000000" font-family="sans-serif" font-size="13" lengthAdjust="spacing" textLength="203" x="115" y="228.895">Poll/Subscribe to see [t1] status</text><line style="stroke:#181818;stroke-width:1.0;" x1="543" x2="585" y1="298.0938" y2="298.0938"/><line style="stroke:#181818;stroke-width:1.0;" x1="585" x2="585" y1="298.0938" y2="311.0938"/><line style="stroke:#181818;stroke-width:1.0;" x1="544" x2="585" y1="311.0938" y2="311.0938"/><polygon fill="#181818" points="554,307.0938,544,311.0938,554,315.0938,550,311.0938" style="stroke:#181818;stroke-width:1.0;"/><a href="#task4" target="_top" title="#task4" xlink:actuate="onRequest" xlink:href="#task4" xlink:show="new" xlink:title="#task4" xlink:type="simple"><text fill="#0000FF" font-family="sans-serif" font-size="13" lengthAdjust="spacing" text-decoration="underline" textLength="12" x="550" y="293.0278">4.</text></a><text fill="#000000" font-family="sans-serif" font-size="13" lengthAdjust="spacing" textLength="146" x="566" y="293.0278">POST [requested data]</text><line style="stroke:#181818;stroke-width:1.0;" x1="543" x2="585" y1="383.3594" y2="383.3594"/><line style="stroke:#181818;stroke-width:1.0;" x1="585" x2="585" y1="383.3594" y2="396.3594"/><line style="stroke:#181818;stroke-width:1.0;" x1="544" x2="585" y1="396.3594" y2="396.3594"/><polygon fill="#181818" points="554,392.3594,544,396.3594,554,400.3594,550,396.3594" style="stroke:#181818;stroke-width:1.0;"/><a href="#task5" target="_top" title="#task5" xlink:actuate="onRequest" xlink:href="#task5" xlink:show="new" xlink:title="#task5" xlink:type="simple"><text fill="#0000FF" font-family="sans-serif" font-size="13" lengthAdjust="spacing" text-decoration="underline" textLength="12" x="550" y="363.1606">5.</text></a><text fill="#000000" font-family="sans-serif" font-size="13" lengthAdjust="spacing" textLength="86" x="566" y="363.1606">PUT Task [t1]</text><text fill="#000000" font-family="sans-serif" font-size="13" lengthAdjust="spacing" textLength="150" x="554" y="378.2935">link to [requested data]</text><polygon fill="#181818" points="93,449.4922,83,453.4922,93,457.4922,89,453.4922" style="stroke:#181818;stroke-width:1.0;"/><polygon fill="#181818" points="531,449.4922,541,453.4922,531,457.4922,535,453.4922" style="stroke:#181818;stroke-width:1.0;"/><line style="stroke:#181818;stroke-width:1.0;" x1="87" x2="537" y1="453.4922" y2="453.4922"/><a href="#task6" target="_top" title="#task6" xlink:actuate="onRequest" xlink:href="#task6" xlink:show="new" xlink:title="#task6" xlink:type="simple"><text fill="#0000FF" font-family="sans-serif" font-size="13" lengthAdjust="spacing" text-decoration="underline" textLength="12" x="99" y="448.4263">6.</text></a><text fill="#000000" font-family="sans-serif" font-size="13" lengthAdjust="spacing" textLength="203" x="115" y="448.4263">Poll/Subscribe to see [t1] status</text><path d="M10,468.4922 L82,468.4922 L82,475.625 L72,485.625 L10,485.625 L10,468.4922 " fill="#EEEEEE" style="stroke:#000000;stroke-width:1.5;"/><rect fill="none" height="75.3984" style="stroke:#000000;stroke-width:1.5;" width="593.5" x="10" y="468.4922"/><text fill="#000000" font-family="sans-serif" font-size="13" font-weight="bold" lengthAdjust="spacing" textLength="27" x="25" y="481.5591">opt</text><polygon fill="#181818" points="531,502.7578,541,506.7578,531,510.7578,535,506.7578" style="stroke:#181818;stroke-width:1.0;"/><line style="stroke:#181818;stroke-width:1.0;" x1="82" x2="537" y1="506.7578" y2="506.7578"/><a href="#task7" target="_top" title="#task7" xlink:actuate="onRequest" xlink:href="#task7" xlink:show="new" xlink:title="#task7" xlink:type="simple"><text fill="#0000FF" font-family="sans-serif" font-size="13" lengthAdjust="spacing" text-decoration="underline" textLength="20" x="89" y="501.6919">7a.</text></a><text fill="#000000" font-family="sans-serif" font-size="13" lengthAdjust="spacing" textLength="413" x="113" y="501.6919">Query to retrieve [requested data] based on reference from [t1]</text><polygon fill="#181818" points="93,531.8906,83,535.8906,93,539.8906,89,535.8906" style="stroke:#181818;stroke-width:1.0;"/><line style="stroke:#181818;stroke-width:1.0;stroke-dasharray:2.0,2.0;" x1="87" x2="542" y1="535.8906" y2="535.8906"/><a href="#task7" target="_top" title="#task7" xlink:actuate="onRequest" xlink:href="#task7" xlink:show="new" xlink:title="#task7" xlink:type="simple"><text fill="#0000FF" font-family="sans-serif" font-size="13" lengthAdjust="spacing" text-decoration="underline" textLength="20" x="99" y="530.8247">7b.</text></a><text fill="#000000" font-family="sans-serif" font-size="13" lengthAdjust="spacing" textLength="284" x="123" y="530.8247">Query response containing [requested data]</text><!--MD5=[cde915121c15160dddbe830add96e6d8]
@startuml
hide footbox
participant "Data Consumer" as Consumer
participant "Data Source" as Source
Consumer -> Source: [[#task1 1.]] POST Task [t1] (self-describing desired data)
...
opt
  Source -> Source: [[#task2 2.]] PUT Task [t1]\n update status
  ...
  Consumer <-> Source: [[#task3 3.]] Poll/Subscribe to see [t1] status
end
...
Source -> Source: [[#task4 4.]] POST [requested data]
...
Source -> Source: [[#task5 5.]] PUT Task [t1]\n link to [requested data]
...
Consumer <-> Source: [[#task6 6.]] Poll/Subscribe to see [t1] status
opt
  Consumer -> Source: [[#task7 7a.]] Query to retrieve [requested data] based on reference from [t1]
  Consumer <- - Source: [[#task7 7b.]] Query response containing [requested data]
end
@enduml

PlantUML version 1.2022.8beta2(Unknown compile time)
(GPL source distribution)
Java Runtime: Java(TM) SE Runtime Environment
JVM: Java HotSpot(TM) 64-Bit Server VM
Default Encoding: UTF-8
Language: en
Country: US
--></g></svg>