<?xml version="1.0" encoding="UTF-8" standalone="no"?><svg xmlns="http://www.w3.org/2000/svg" xmlns:xlink="http://www.w3.org/1999/xlink" contentScriptType="application/ecmascript" contentStyleType="text/css" height="1014px" preserveAspectRatio="none" style="width:534px;height:1014px;background:#FFFFFF;" version="1.1" viewBox="0 0 534 1014" width="534px" zoomAndPan="magnify"><defs><filter height="300%" id="f1x1g32akx8tif" width="300%" x="-1" y="-1"><feGaussianBlur result="blurOut" stdDeviation="2.0"/><feColorMatrix in="blurOut" result="blurOut2" type="matrix" values="0 0 0 0 0 0 0 0 0 0 0 0 0 0 0 0 0 0 .4 0"/><feOffset dx="4.0" dy="4.0" in="blurOut2" result="blurOut3"/><feBlend in="SourceGraphic" in2="blurOut3" mode="normal"/></filter></defs><g><rect fill="#FFFFFF" filter="url(#f1x1g32akx8tif)" height="370.7266" style="stroke:#000000;stroke-width:2.0;" width="510.5" x="10" y="61.2969"/><rect fill="#FFFFFF" filter="url(#f1x1g32akx8tif)" height="118.2656" style="stroke:#000000;stroke-width:2.0;" width="510.5" x="10" y="489.1563"/><rect fill="#FFFFFF" filter="url(#f1x1g32akx8tif)" height="134.5313" style="stroke:#000000;stroke-width:2.0;" width="510.5" x="10" y="621.4219"/><rect fill="#FFFFFF" filter="url(#f1x1g32akx8tif)" height="179.9297" style="stroke:#000000;stroke-width:2.0;" width="510.5" x="10" y="769.9531"/><line style="stroke:#A80036;stroke-width:1.0;" x1="120" x2="120" y1="44.2969" y2="82.4297"/><line style="stroke:#A80036;stroke-width:1.0;stroke-dasharray:1.0,4.0;" x1="120" x2="120" y1="82.4297" y2="114.4297"/><line style="stroke:#A80036;stroke-width:1.0;" x1="120" x2="120" y1="114.4297" y2="241.2266"/><line style="stroke:#A80036;stroke-width:1.0;stroke-dasharray:1.0,4.0;" x1="120" x2="120" y1="241.2266" y2="273.2266"/><line style="stroke:#A80036;stroke-width:1.0;" x1="120" x2="120" y1="273.2266" y2="400.0234"/><line style="stroke:#A80036;stroke-width:1.0;stroke-dasharray:1.0,4.0;" x1="120" x2="120" y1="400.0234" y2="432.0234"/><line style="stroke:#A80036;stroke-width:1.0;" x1="120" x2="120" y1="432.0234" y2="510.2891"/><line style="stroke:#A80036;stroke-width:1.0;stroke-dasharray:1.0,4.0;" x1="120" x2="120" y1="510.2891" y2="542.2891"/><line style="stroke:#A80036;stroke-width:1.0;" x1="120" x2="120" y1="542.2891" y2="575.4219"/><line style="stroke:#A80036;stroke-width:1.0;stroke-dasharray:1.0,4.0;" x1="120" x2="120" y1="575.4219" y2="607.4219"/><line style="stroke:#A80036;stroke-width:1.0;" x1="120" x2="120" y1="607.4219" y2="723.9531"/><line style="stroke:#A80036;stroke-width:1.0;stroke-dasharray:1.0,4.0;" x1="120" x2="120" y1="723.9531" y2="755.9531"/><line style="stroke:#A80036;stroke-width:1.0;" x1="120" x2="120" y1="755.9531" y2="917.8828"/><line style="stroke:#A80036;stroke-width:1.0;stroke-dasharray:1.0,4.0;" x1="120" x2="120" y1="917.8828" y2="949.8828"/><line style="stroke:#A80036;stroke-width:1.0;" x1="120" x2="120" y1="949.8828" y2="966.8828"/><line style="stroke:#A80036;stroke-width:1.0;" x1="412.5" x2="412.5" y1="44.2969" y2="82.4297"/><line style="stroke:#A80036;stroke-width:1.0;stroke-dasharray:1.0,4.0;" x1="412.5" x2="412.5" y1="82.4297" y2="114.4297"/><line style="stroke:#A80036;stroke-width:1.0;" x1="412.5" x2="412.5" y1="114.4297" y2="241.2266"/><line style="stroke:#A80036;stroke-width:1.0;stroke-dasharray:1.0,4.0;" x1="412.5" x2="412.5" y1="241.2266" y2="273.2266"/><line style="stroke:#A80036;stroke-width:1.0;" x1="412.5" x2="412.5" y1="273.2266" y2="400.0234"/><line style="stroke:#A80036;stroke-width:1.0;stroke-dasharray:1.0,4.0;" x1="412.5" x2="412.5" y1="400.0234" y2="432.0234"/><line style="stroke:#A80036;stroke-width:1.0;" x1="412.5" x2="412.5" y1="432.0234" y2="510.2891"/><line style="stroke:#A80036;stroke-width:1.0;stroke-dasharray:1.0,4.0;" x1="412.5" x2="412.5" y1="510.2891" y2="542.2891"/><line style="stroke:#A80036;stroke-width:1.0;" x1="412.5" x2="412.5" y1="542.2891" y2="575.4219"/><line style="stroke:#A80036;stroke-width:1.0;stroke-dasharray:1.0,4.0;" x1="412.5" x2="412.5" y1="575.4219" y2="607.4219"/><line style="stroke:#A80036;stroke-width:1.0;" x1="412.5" x2="412.5" y1="607.4219" y2="723.9531"/><line style="stroke:#A80036;stroke-width:1.0;stroke-dasharray:1.0,4.0;" x1="412.5" x2="412.5" y1="723.9531" y2="755.9531"/><line style="stroke:#A80036;stroke-width:1.0;" x1="412.5" x2="412.5" y1="755.9531" y2="917.8828"/><line style="stroke:#A80036;stroke-width:1.0;stroke-dasharray:1.0,4.0;" x1="412.5" x2="412.5" y1="917.8828" y2="949.8828"/><line style="stroke:#A80036;stroke-width:1.0;" x1="412.5" x2="412.5" y1="949.8828" y2="966.8828"/><rect fill="#FEFECE" filter="url(#f1x1g32akx8tif)" height="34.2969" style="stroke:#A80036;stroke-width:1.5;" width="97" x="70" y="5"/><text fill="#000000" font-family="sans-serif" font-size="14" lengthAdjust="spacing" textLength="79" x="79" y="26.9951">FHIR Server</text><rect fill="#FEFECE" filter="url(#f1x1g32akx8tif)" height="34.2969" style="stroke:#A80036;stroke-width:1.5;" width="97" x="70" y="965.8828"/><text fill="#000000" font-family="sans-serif" font-size="14" lengthAdjust="spacing" textLength="79" x="79" y="987.8779">FHIR Server</text><rect fill="#FEFECE" filter="url(#f1x1g32akx8tif)" height="34.2969" style="stroke:#A80036;stroke-width:1.5;" width="92" x="364.5" y="5"/><text fill="#000000" font-family="sans-serif" font-size="14" lengthAdjust="spacing" textLength="74" x="373.5" y="26.9951">Subscriber</text><rect fill="#FEFECE" filter="url(#f1x1g32akx8tif)" height="34.2969" style="stroke:#A80036;stroke-width:1.5;" width="92" x="364.5" y="965.8828"/><text fill="#000000" font-family="sans-serif" font-size="14" lengthAdjust="spacing" textLength="74" x="373.5" y="987.8779">Subscriber</text><path d="M10,61.2969 L190,61.2969 L190,72.2969 L180,82.2969 L10,82.2969 L10,61.2969 " fill="#EEEEEE" style="stroke:#000000;stroke-width:1.0;"/><rect fill="none" height="370.7266" style="stroke:#000000;stroke-width:2.0;" width="510.5" x="10" y="61.2969"/><text fill="#000000" font-family="sans-serif" font-size="13" font-weight="bold" lengthAdjust="spacing" textLength="131" x="27" y="76.3638">Normal Operation</text><polygon fill="#A80036" points="400.5,196.0938,410.5,200.0938,400.5,204.0938,404.5,200.0938" style="stroke:#A80036;stroke-width:1.0;"/><line style="stroke:#A80036;stroke-width:1.0;" x1="120.5" x2="406.5" y1="200.0938" y2="200.0938"/><text fill="#000000" font-family="sans-serif" font-size="13" lengthAdjust="spacing" textLength="72" x="129.5" y="132.4966">Notification</text><text fill="#000000" font-family="monospace" font-size="13" lengthAdjust="spacing" textLength="48" x="205.5" y="132.4966">Bundle</text><text fill="#000000" font-family="monospace" font-size="13" lengthAdjust="spacing" textLength="40" x="129.5" y="147.6294">type:</text><text fill="#000000" font-family="monospace" font-size="13" font-weight="bold" lengthAdjust="spacing" textLength="144" x="177.5" y="147.6294">event-notification</text><text fill="#000000" font-family="monospace" font-size="13" lengthAdjust="spacing" textLength="232" x="129.5" y="162.7622">eventsSinceSubscriptionStart:</text><text fill="#000000" font-family="monospace" font-size="13" font-weight="bold" lengthAdjust="spacing" textLength="16" x="377.5" y="162.7622">21</text><text fill="#000000" font-family="monospace" font-size="13" lengthAdjust="spacing" textLength="240" x="129.5" y="177.895">notificationEvent.eventNumber:</text><text fill="#000000" font-family="monospace" font-size="13" font-weight="bold" lengthAdjust="spacing" textLength="16" x="377.5" y="177.895">21</text><text fill="#000000" font-family="sans-serif" font-size="13" lengthAdjust="spacing" textLength="0" x="133.5" y="193.0278"/><polygon fill="#A80036" points="131.5,229.2266,121.5,233.2266,131.5,237.2266,127.5,233.2266" style="stroke:#A80036;stroke-width:1.0;"/><line style="stroke:#A80036;stroke-width:1.0;stroke-dasharray:2.0,2.0;" x1="125.5" x2="411.5" y1="233.2266" y2="233.2266"/><text fill="#000000" font-family="monospace" font-size="13" lengthAdjust="spacing" textLength="56" x="139.5" y="226.1606">200: OK</text><polygon fill="#A80036" points="400.5,354.8906,410.5,358.8906,400.5,362.8906,404.5,358.8906" style="stroke:#A80036;stroke-width:1.0;"/><line style="stroke:#A80036;stroke-width:1.0;" x1="120.5" x2="406.5" y1="358.8906" y2="358.8906"/><text fill="#000000" font-family="sans-serif" font-size="13" lengthAdjust="spacing" textLength="72" x="129.5" y="291.2935">Notification</text><text fill="#000000" font-family="monospace" font-size="13" lengthAdjust="spacing" textLength="48" x="205.5" y="291.2935">Bundle</text><text fill="#000000" font-family="monospace" font-size="13" lengthAdjust="spacing" textLength="40" x="129.5" y="306.4263">type:</text><text fill="#000000" font-family="monospace" font-size="13" font-weight="bold" lengthAdjust="spacing" textLength="144" x="177.5" y="306.4263">event-notification</text><text fill="#000000" font-family="monospace" font-size="13" lengthAdjust="spacing" textLength="232" x="129.5" y="321.5591">eventsSinceSubscriptionStart:</text><text fill="#000000" font-family="monospace" font-size="13" font-weight="bold" lengthAdjust="spacing" textLength="16" x="377.5" y="321.5591">23</text><text fill="#000000" font-family="monospace" font-size="13" lengthAdjust="spacing" textLength="240" x="129.5" y="336.6919">notificationEvent.eventNumber:</text><text fill="#000000" font-family="monospace" font-size="13" font-weight="bold" lengthAdjust="spacing" textLength="16" x="377.5" y="336.6919">23</text><text fill="#000000" font-family="sans-serif" font-size="13" lengthAdjust="spacing" textLength="0" x="133.5" y="351.8247"/><polygon fill="#A80036" points="131.5,388.0234,121.5,392.0234,131.5,396.0234,127.5,392.0234" style="stroke:#A80036;stroke-width:1.0;"/><line style="stroke:#A80036;stroke-width:1.0;stroke-dasharray:2.0,2.0;" x1="125.5" x2="411.5" y1="392.0234" y2="392.0234"/><text fill="#000000" font-family="monospace" font-size="13" lengthAdjust="spacing" textLength="56" x="139.5" y="384.9575">200: OK</text><path d="M104,444.0234 L104,473.0234 L403,473.0234 L403,454.0234 L393,444.0234 L104,444.0234 " fill="#FBFB77" filter="url(#f1x1g32akx8tif)" style="stroke:#A80036;stroke-width:1.0;"/><path d="M393,444.0234 L393,454.0234 L403,454.0234 L393,444.0234 " fill="#FBFB77" style="stroke:#A80036;stroke-width:1.0;"/><text fill="#000000" font-family="sans-serif" font-size="13" lengthAdjust="spacing" textLength="185" x="112" y="463.0903">Subscriber determines event</text><text fill="#000000" font-family="sans-serif" font-size="13" font-weight="bold" lengthAdjust="spacing" textLength="18" x="301" y="463.0903">22</text><text fill="#000000" font-family="sans-serif" font-size="13" lengthAdjust="spacing" textLength="63" x="323" y="463.0903">is missing</text><path d="M10,489.1563 L273,489.1563 L273,500.1563 L263,510.1563 L10,510.1563 L10,489.1563 " fill="#EEEEEE" style="stroke:#000000;stroke-width:1.0;"/><rect fill="none" height="118.2656" style="stroke:#000000;stroke-width:2.0;" width="510.5" x="10" y="489.1563"/><text fill="#000000" font-family="sans-serif" font-size="13" font-weight="bold" lengthAdjust="spacing" textLength="214" x="27" y="504.2231">Subscriber Recovery Process</text><polygon fill="#A80036" points="131.5,563.4219,121.5,567.4219,131.5,571.4219,127.5,567.4219" style="stroke:#A80036;stroke-width:1.0;"/><polygon fill="#A80036" points="400.5,563.4219,410.5,567.4219,400.5,571.4219,404.5,567.4219" style="stroke:#A80036;stroke-width:1.0;"/><line style="stroke:#A80036;stroke-width:1.0;" x1="125.5" x2="406.5" y1="567.4219" y2="567.4219"/><text fill="#000000" font-family="sans-serif" font-size="13" lengthAdjust="spacing" textLength="96" x="139.5" y="560.356">FHIR API calls...</text><path d="M10,621.4219 L230,621.4219 L230,632.4219 L220,642.4219 L10,642.4219 L10,621.4219 " fill="#EEEEEE" style="stroke:#000000;stroke-width:1.0;"/><rect fill="none" height="134.5313" style="stroke:#000000;stroke-width:2.0;" width="510.5" x="10" y="621.4219"/><text fill="#000000" font-family="sans-serif" font-size="13" font-weight="bold" lengthAdjust="spacing" textLength="171" x="27" y="636.4888">Re-enable Subscription</text><polygon fill="#A80036" points="131.5,678.8203,121.5,682.8203,131.5,686.8203,127.5,682.8203" style="stroke:#A80036;stroke-width:1.0;"/><line style="stroke:#A80036;stroke-width:1.0;" x1="125.5" x2="411.5" y1="682.8203" y2="682.8203"/><text fill="#000000" font-family="sans-serif" font-size="13" lengthAdjust="spacing" textLength="130" x="139.5" y="660.6216">Update Subscription</text><text fill="#000000" font-family="monospace" font-size="13" lengthAdjust="spacing" textLength="136" x="139.5" y="675.7544">status: requested</text><polygon fill="#A80036" points="400.5,711.9531,410.5,715.9531,400.5,719.9531,404.5,715.9531" style="stroke:#A80036;stroke-width:1.0;"/><line style="stroke:#A80036;stroke-width:1.0;stroke-dasharray:2.0,2.0;" x1="120.5" x2="406.5" y1="715.9531" y2="715.9531"/><text fill="#000000" font-family="monospace" font-size="13" lengthAdjust="spacing" textLength="56" x="129.5" y="708.8872">200: OK</text><path d="M10,769.9531 L254,769.9531 L254,780.9531 L244,790.9531 L10,790.9531 L10,769.9531 " fill="#EEEEEE" style="stroke:#000000;stroke-width:1.0;"/><rect fill="none" height="179.9297" style="stroke:#000000;stroke-width:2.0;" width="510.5" x="10" y="769.9531"/><text fill="#000000" font-family="sans-serif" font-size="13" font-weight="bold" lengthAdjust="spacing" textLength="195" x="27" y="785.02">Resume Normal Operation</text><polygon fill="#A80036" points="400.5,872.75,410.5,876.75,400.5,880.75,404.5,876.75" style="stroke:#A80036;stroke-width:1.0;"/><line style="stroke:#A80036;stroke-width:1.0;" x1="120.5" x2="406.5" y1="876.75" y2="876.75"/><text fill="#000000" font-family="sans-serif" font-size="13" lengthAdjust="spacing" textLength="72" x="129.5" y="809.1528">Notification</text><text fill="#000000" font-family="monospace" font-size="13" lengthAdjust="spacing" textLength="48" x="205.5" y="809.1528">Bundle</text><text fill="#000000" font-family="monospace" font-size="13" lengthAdjust="spacing" textLength="40" x="129.5" y="824.2856">type:</text><text fill="#000000" font-family="monospace" font-size="13" font-weight="bold" lengthAdjust="spacing" textLength="144" x="177.5" y="824.2856">event-notification</text><text fill="#000000" font-family="monospace" font-size="13" lengthAdjust="spacing" textLength="232" x="129.5" y="839.4185">eventsSinceSubscriptionStart:</text><text fill="#000000" font-family="monospace" font-size="13" font-weight="bold" lengthAdjust="spacing" textLength="16" x="377.5" y="839.4185">24</text><text fill="#000000" font-family="monospace" font-size="13" lengthAdjust="spacing" textLength="240" x="129.5" y="854.5513">notificationEvent.eventNumber:</text><text fill="#000000" font-family="monospace" font-size="13" font-weight="bold" lengthAdjust="spacing" textLength="16" x="377.5" y="854.5513">24</text><text fill="#000000" font-family="sans-serif" font-size="13" lengthAdjust="spacing" textLength="0" x="133.5" y="869.6841"/><polygon fill="#A80036" points="131.5,905.8828,121.5,909.8828,131.5,913.8828,127.5,909.8828" style="stroke:#A80036;stroke-width:1.0;"/><line style="stroke:#A80036;stroke-width:1.0;stroke-dasharray:2.0,2.0;" x1="125.5" x2="411.5" y1="909.8828" y2="909.8828"/><text fill="#000000" font-family="monospace" font-size="13" lengthAdjust="spacing" textLength="56" x="139.5" y="902.8169">200: OK</text><!--MD5=[87326453d83673b420524c564f9916fc]
@startuml
skinparam NoteTextAlignment left
skinparam Padding 2
skinparam ParticipantPadding 50
skinparam LifelineStrategy solid

participant "FHIR Server" as S
participant Subscriber    as C

group Normal Operation
  ...
  S -> C: Notification ""Bundle""\n""type: **event-notification**""\n""eventsSinceSubscriptionStart:  **21**""\n""notificationEvent.eventNumber: **21**""\n
  return ""200: OK""
  ...
  S -> C: Notification ""Bundle""\n""type: **event-notification**""\n""eventsSinceSubscriptionStart:  **23**""\n""notificationEvent.eventNumber: **23**""\n
  return ""200: OK""
  ...
end

note left of C
  Subscriber determines event **22** is missing
end note

group Subscriber Recovery Process
  ...
  C <-> S: FHIR API calls...
  ...
end

group Re-enable Subscription
  C -> S:Update Subscription\n""status: requested""
  return ""200: OK""
  ...
end

group Resume Normal Operation
  S -> C: Notification ""Bundle""\n""type: **event-notification**""\n""eventsSinceSubscriptionStart:  **24**""\n""notificationEvent.eventNumber: **24**""\n
  return ""200: OK""
  ...
end
@enduml

PlantUML version 1.2021.16(Wed Dec 08 17:25:22 UTC 2021)
(GPL source distribution)
Java Runtime: OpenJDK Runtime Environment
JVM: OpenJDK 64-Bit Server VM
Default Encoding: UTF-8
Language: en
Country: US
--></g></svg>