<?xml version="1.0" encoding="UTF-8" standalone="no"?><svg xmlns="http://www.w3.org/2000/svg" xmlns:xlink="http://www.w3.org/1999/xlink" contentScriptType="application/ecmascript" contentStyleType="text/css" height="385px" preserveAspectRatio="none" style="width:665px;height:385px;background:#FFFFFF;" version="1.1" viewBox="0 0 665 385" width="665px" zoomAndPan="magnify"><defs><filter height="300%" id="f7wy8sactcgxx" width="300%" x="-1" y="-1"><feGaussianBlur result="blurOut" stdDeviation="2.0"/><feColorMatrix in="blurOut" result="blurOut2" type="matrix" values="0 0 0 0 0 0 0 0 0 0 0 0 0 0 0 0 0 0 .4 0"/><feOffset dx="4.0" dy="4.0" in="blurOut2" result="blurOut3"/><feBlend in="SourceGraphic" in2="blurOut3" mode="normal"/></filter></defs><g><line style="stroke:#A80036;stroke-width:1.0;stroke-dasharray:5.0,5.0;" x1="89.5" x2="89.5" y1="44.2969" y2="337.3594"/><line style="stroke:#A80036;stroke-width:1.0;stroke-dasharray:5.0,5.0;" x1="261.5" x2="261.5" y1="44.2969" y2="337.3594"/><line style="stroke:#A80036;stroke-width:1.0;stroke-dasharray:5.0,5.0;" x1="399" x2="399" y1="44.2969" y2="337.3594"/><line style="stroke:#A80036;stroke-width:1.0;stroke-dasharray:5.0,5.0;" x1="562" x2="562" y1="44.2969" y2="337.3594"/><rect fill="#FEFECE" filter="url(#f7wy8sactcgxx)" height="34.2969" style="stroke:#A80036;stroke-width:1.5;" width="97" x="39" y="5"/><text fill="#000000" font-family="sans-serif" font-size="14" lengthAdjust="spacing" textLength="79" x="48" y="26.9951">FHIR Server</text><rect fill="#FEFECE" filter="url(#f7wy8sactcgxx)" height="34.2969" style="stroke:#A80036;stroke-width:1.5;" width="61" x="229" y="5"/><text fill="#000000" font-family="sans-serif" font-size="14" lengthAdjust="spacing" textLength="43" x="238" y="26.9951">Empty</text><rect fill="#FEFECE" filter="url(#f7wy8sactcgxx)" height="34.2969" style="stroke:#A80036;stroke-width:1.5;" width="66" x="364" y="5"/><text fill="#000000" font-family="sans-serif" font-size="14" lengthAdjust="spacing" textLength="48" x="373" y="26.9951">ID Only</text><rect fill="#FEFECE" filter="url(#f7wy8sactcgxx)" height="34.2969" style="stroke:#A80036;stroke-width:1.5;" width="112" x="504" y="5"/><text fill="#000000" font-family="sans-serif" font-size="14" lengthAdjust="spacing" textLength="94" x="513" y="26.9951">Full Resource</text><rect fill="#FEFECE" filter="url(#f7wy8sactcgxx)" height="34.2969" style="stroke:#A80036;stroke-width:1.5;" width="97" x="39" y="337.3594"/><text fill="#000000" font-family="sans-serif" font-size="14" lengthAdjust="spacing" textLength="79" x="48" y="359.3545">FHIR Server</text><rect fill="#FEFECE" filter="url(#f7wy8sactcgxx)" height="34.2969" style="stroke:#A80036;stroke-width:1.5;" width="61" x="229" y="337.3594"/><text fill="#000000" font-family="sans-serif" font-size="14" lengthAdjust="spacing" textLength="43" x="238" y="359.3545">Empty</text><rect fill="#FEFECE" filter="url(#f7wy8sactcgxx)" height="34.2969" style="stroke:#A80036;stroke-width:1.5;" width="66" x="364" y="337.3594"/><text fill="#000000" font-family="sans-serif" font-size="14" lengthAdjust="spacing" textLength="48" x="373" y="359.3545">ID Only</text><rect fill="#FEFECE" filter="url(#f7wy8sactcgxx)" height="34.2969" style="stroke:#A80036;stroke-width:1.5;" width="112" x="504" y="337.3594"/><text fill="#000000" font-family="sans-serif" font-size="14" lengthAdjust="spacing" textLength="94" x="513" y="359.3545">Full Resource</text><polygon fill="#A80036" points="638,73.4297,648,77.4297,638,81.4297,642,77.4297" style="stroke:#A80036;stroke-width:1.0;"/><line style="stroke:#A80036;stroke-width:1.0;" x1="89.5" x2="644" y1="77.4297" y2="77.4297"/><text fill="#000000" font-family="sans-serif" font-size="13" lengthAdjust="spacing" textLength="33" x="98.5" y="70.3638">Send</text><text fill="#000000" font-family="monospace" font-size="13" lengthAdjust="spacing" textLength="144" x="135.5" y="70.3638">event-notification</text><polygon fill="#A80036" points="249.5,106.5625,259.5,110.5625,249.5,114.5625,253.5,110.5625" style="stroke:#A80036;stroke-width:1.0;"/><line style="stroke:#A80036;stroke-width:1.0;" x1="193.5" x2="255.5" y1="110.5625" y2="110.5625"/><text fill="#000000" font-family="monospace" font-size="13" lengthAdjust="spacing" textLength="40" x="202.5" y="103.4966">empty</text><polygon fill="#A80036" points="387,106.5625,397,110.5625,387,114.5625,391,110.5625" style="stroke:#A80036;stroke-width:1.0;"/><line style="stroke:#A80036;stroke-width:1.0;" x1="315" x2="393" y1="110.5625" y2="110.5625"/><text fill="#000000" font-family="monospace" font-size="13" lengthAdjust="spacing" textLength="56" x="324" y="103.4966">id-only</text><polygon fill="#A80036" points="550,106.5625,560,110.5625,550,114.5625,554,110.5625" style="stroke:#A80036;stroke-width:1.0;"/><line style="stroke:#A80036;stroke-width:1.0;" x1="430" x2="556" y1="110.5625" y2="110.5625"/><text fill="#000000" font-family="monospace" font-size="13" lengthAdjust="spacing" textLength="104" x="439" y="103.4966">full-resource</text><polygon fill="#A80036" points="100.5,139.6953,90.5,143.6953,100.5,147.6953,96.5,143.6953" style="stroke:#A80036;stroke-width:1.0;"/><line style="stroke:#A80036;stroke-width:1.0;stroke-dasharray:2.0,2.0;" x1="94.5" x2="260.5" y1="143.6953" y2="143.6953"/><text fill="#000000" font-family="sans-serif" font-size="13" lengthAdjust="spacing" textLength="86" x="108.5" y="136.6294">HTTP 200: OK</text><polygon fill="#A80036" points="100.5,139.6953,90.5,143.6953,100.5,147.6953,96.5,143.6953" style="stroke:#A80036;stroke-width:1.0;"/><line style="stroke:#A80036;stroke-width:1.0;stroke-dasharray:2.0,2.0;" x1="94.5" x2="398" y1="143.6953" y2="143.6953"/><polygon fill="#A80036" points="100.5,139.6953,90.5,143.6953,100.5,147.6953,96.5,143.6953" style="stroke:#A80036;stroke-width:1.0;"/><line style="stroke:#A80036;stroke-width:1.0;stroke-dasharray:2.0,2.0;" x1="94.5" x2="561" y1="143.6953" y2="143.6953"/><polygon fill="#A80036" points="100.5,172.8281,90.5,176.8281,100.5,180.8281,96.5,176.8281" style="stroke:#A80036;stroke-width:1.0;"/><line style="stroke:#A80036;stroke-width:1.0;" x1="94.5" x2="260.5" y1="176.8281" y2="176.8281"/><text fill="#000000" font-family="sans-serif" font-size="13" lengthAdjust="spacing" textLength="77" x="108.5" y="169.7622">FHIR Search</text><polygon fill="#A80036" points="249.5,205.9609,259.5,209.9609,249.5,213.9609,253.5,209.9609" style="stroke:#A80036;stroke-width:1.0;"/><line style="stroke:#A80036;stroke-width:1.0;stroke-dasharray:2.0,2.0;" x1="89.5" x2="255.5" y1="209.9609" y2="209.9609"/><text fill="#000000" font-family="sans-serif" font-size="13" lengthAdjust="spacing" textLength="88" x="98.5" y="202.895">Query Results</text><polygon fill="#A80036" points="100.5,239.0938,90.5,243.0938,100.5,247.0938,96.5,243.0938" style="stroke:#A80036;stroke-width:1.0;"/><line style="stroke:#A80036;stroke-width:1.0;" x1="94.5" x2="260.5" y1="243.0938" y2="243.0938"/><text fill="#000000" font-family="sans-serif" font-size="13" lengthAdjust="spacing" textLength="137" x="108.5" y="236.0278">Fetch FHIR Resources</text><polygon fill="#A80036" points="100.5,239.0938,90.5,243.0938,100.5,247.0938,96.5,243.0938" style="stroke:#A80036;stroke-width:1.0;"/><line style="stroke:#A80036;stroke-width:1.0;" x1="94.5" x2="398" y1="243.0938" y2="243.0938"/><polygon fill="#A80036" points="249.5,272.2266,259.5,276.2266,249.5,280.2266,253.5,276.2266" style="stroke:#A80036;stroke-width:1.0;"/><line style="stroke:#A80036;stroke-width:1.0;stroke-dasharray:2.0,2.0;" x1="89.5" x2="255.5" y1="276.2266" y2="276.2266"/><text fill="#000000" font-family="sans-serif" font-size="13" lengthAdjust="spacing" textLength="144" x="98.5" y="269.1606">Return FHIR Resources</text><polygon fill="#A80036" points="387,272.2266,397,276.2266,387,280.2266,391,276.2266" style="stroke:#A80036;stroke-width:1.0;"/><line style="stroke:#A80036;stroke-width:1.0;stroke-dasharray:2.0,2.0;" x1="89.5" x2="393" y1="276.2266" y2="276.2266"/><path d="M10,289.2266 L10,318.2266 L165,318.2266 L165,299.2266 L155,289.2266 L10,289.2266 " fill="#FBFB77" filter="url(#f7wy8sactcgxx)" style="stroke:#A80036;stroke-width:1.0;"/><path d="M155,289.2266 L155,299.2266 L165,299.2266 L155,289.2266 " fill="#FBFB77" style="stroke:#A80036;stroke-width:1.0;"/><text fill="#000000" font-family="sans-serif" font-size="13" lengthAdjust="spacing" textLength="130" x="18" y="308.2935">Additional Requests:</text><path d="M242.5,289.2266 L242.5,318.2266 L276.5,318.2266 L276.5,299.2266 L266.5,289.2266 L242.5,289.2266 " fill="#FBFB77" filter="url(#f7wy8sactcgxx)" style="stroke:#A80036;stroke-width:1.0;"/><path d="M266.5,289.2266 L266.5,299.2266 L276.5,299.2266 L266.5,289.2266 " fill="#FBFB77" style="stroke:#A80036;stroke-width:1.0;"/><text fill="#000000" font-family="sans-serif" font-size="13" font-weight="bold" lengthAdjust="spacing" textLength="9" x="250.5" y="308.2935">2</text><path d="M380,289.2266 L380,318.2266 L414,318.2266 L414,299.2266 L404,289.2266 L380,289.2266 " fill="#FBFB77" filter="url(#f7wy8sactcgxx)" style="stroke:#A80036;stroke-width:1.0;"/><path d="M404,289.2266 L404,299.2266 L414,299.2266 L404,289.2266 " fill="#FBFB77" style="stroke:#A80036;stroke-width:1.0;"/><text fill="#000000" font-family="sans-serif" font-size="13" font-weight="bold" lengthAdjust="spacing" textLength="9" x="388" y="308.2935">1</text><path d="M543,289.2266 L543,318.2266 L577,318.2266 L577,299.2266 L567,289.2266 L543,289.2266 " fill="#FBFB77" filter="url(#f7wy8sactcgxx)" style="stroke:#A80036;stroke-width:1.0;"/><path d="M567,289.2266 L567,299.2266 L577,299.2266 L567,289.2266 " fill="#FBFB77" style="stroke:#A80036;stroke-width:1.0;"/><text fill="#000000" font-family="sans-serif" font-size="13" font-weight="bold" lengthAdjust="spacing" textLength="9" x="551" y="308.2935">0</text><!--MD5=[778782cf4c5503f4e5d1f332c2c6b31e]
@startuml
!pragma teoz true
skinparam NoteTextAlignment left
skinparam Padding 2
skinparam ParticipantPadding 30
skinparam LifelineStrategy solid

participant "FHIR Server"   as S
participant "Empty"  as E
participant "ID Only"       as I
participant "Full Resource" as F

S -> : Send ""event-notification""

  ?-> E : ""empty""
& ?-> I : ""id-only""
& ?-> F : ""full-resource""

  E - -> S: HTTP 200: OK
& I - -> S:
& F - -> S:

  E -> S: FHIR Search 
  S - -> E: Query Results

  E -> S: Fetch FHIR Resources
& I -> S:

  S - -> E: Return FHIR Resources
& S - -> I:

  note over S: Additional Requests:
& note over E: **2**
& note over I: **1**
& note over F: **0**
@enduml

PlantUML version 1.2021.7(Sun May 23 12:40:07 UTC 2021)
(GPL source distribution)
Java Runtime: OpenJDK Runtime Environment
JVM: OpenJDK 64-Bit Server VM
Default Encoding: UTF-8
Language: en
Country: US
--></g></svg>