<?xml version="1.0" encoding="UTF-8" standalone="no"?><svg xmlns="http://www.w3.org/2000/svg" xmlns:xlink="http://www.w3.org/1999/xlink" contentStyleType="text/css" height="622px" preserveAspectRatio="none" style="width:832px;height:622px;background:#FFFFFF;" version="1.1" viewBox="0 0 832 622" width="832px" zoomAndPan="magnify"><defs><filter height="300%" id="fpasnfsarw4bm" width="300%" x="-1" y="-1"><feGaussianBlur result="blurOut" stdDeviation="2.0"/><feColorMatrix in="blurOut" result="blurOut2" type="matrix" values="0 0 0 0 0 0 0 0 0 0 0 0 0 0 0 0 0 0 .4 0"/><feOffset dx="4.0" dy="4.0" in="blurOut2" result="blurOut3"/><feBlend in="SourceGraphic" in2="blurOut3" mode="normal"/></filter></defs><g><rect fill="none" filter="url(#fpasnfsarw4bm)" height="387.0938" style="stroke:#000000;stroke-width:2.0;" width="808.5" x="10" y="61.2969"/><rect fill="none" filter="url(#fpasnfsarw4bm)" height="96.2656" style="stroke:#000000;stroke-width:2.0;" width="757" x="33" y="462.3906"/><line style="stroke:#A80036;stroke-width:1.0;stroke-dasharray:5.0,5.0;" x1="120" x2="120" y1="44.2969" y2="526.6563"/><line style="stroke:#A80036;stroke-width:1.0;stroke-dasharray:1.0,4.0;" x1="120" x2="120" y1="526.6563" y2="558.6563"/><line style="stroke:#A80036;stroke-width:1.0;stroke-dasharray:5.0,5.0;" x1="120" x2="120" y1="558.6563" y2="575.6563"/><line style="stroke:#A80036;stroke-width:1.0;stroke-dasharray:5.0,5.0;" x1="420.5" x2="420.5" y1="44.2969" y2="526.6563"/><line style="stroke:#A80036;stroke-width:1.0;stroke-dasharray:1.0,4.0;" x1="420.5" x2="420.5" y1="526.6563" y2="558.6563"/><line style="stroke:#A80036;stroke-width:1.0;stroke-dasharray:5.0,5.0;" x1="420.5" x2="420.5" y1="558.6563" y2="575.6563"/><line style="stroke:#A80036;stroke-width:1.0;stroke-dasharray:5.0,5.0;" x1="694.5" x2="694.5" y1="259.3438" y2="526.6563"/><line style="stroke:#A80036;stroke-width:1.0;stroke-dasharray:1.0,4.0;" x1="694.5" x2="694.5" y1="526.6563" y2="558.6563"/><line style="stroke:#A80036;stroke-width:1.0;stroke-dasharray:5.0,5.0;" x1="694.5" x2="694.5" y1="558.6563" y2="575.6563"/><rect fill="#FEFECE" filter="url(#fpasnfsarw4bm)" height="34.2969" style="stroke:#A80036;stroke-width:1.5;" width="97" x="70" y="5"/><text fill="#000000" font-family="sans-serif" font-size="14" lengthAdjust="spacing" textLength="79" x="79" y="26.9951">FHIR Server</text><rect fill="#FEFECE" filter="url(#fpasnfsarw4bm)" height="34.2969" style="stroke:#A80036;stroke-width:1.5;" width="97" x="70" y="574.6563"/><text fill="#000000" font-family="sans-serif" font-size="14" lengthAdjust="spacing" textLength="79" x="79" y="596.6514">FHIR Server</text><rect fill="#FEFECE" filter="url(#fpasnfsarw4bm)" height="34.2969" style="stroke:#A80036;stroke-width:1.5;" width="168" x="334.5" y="5"/><text fill="#000000" font-family="sans-serif" font-size="14" lengthAdjust="spacing" textLength="150" x="343.5" y="26.9951">Subscription Manager</text><rect fill="#FEFECE" filter="url(#fpasnfsarw4bm)" height="34.2969" style="stroke:#A80036;stroke-width:1.5;" width="168" x="334.5" y="574.6563"/><text fill="#000000" font-family="sans-serif" font-size="14" lengthAdjust="spacing" textLength="150" x="343.5" y="596.6514">Subscription Manager</text><rect fill="#FEFECE" filter="url(#fpasnfsarw4bm)" height="34.2969" style="stroke:#A80036;stroke-width:1.5;" width="123" x="631.5" y="574.6563"/><text fill="#000000" font-family="sans-serif" font-size="14" lengthAdjust="spacing" textLength="105" x="640.5" y="596.6514">Client Endpoint</text><path d="M10,61.2969 L160,61.2969 L160,72.4297 L150,82.4297 L10,82.4297 L10,61.2969 " fill="#EEEEEE" style="stroke:#000000;stroke-width:1.0;"/><rect fill="none" height="387.0938" style="stroke:#000000;stroke-width:2.0;" width="808.5" x="10" y="61.2969"/><text fill="#000000" font-family="sans-serif" font-size="13" font-weight="bold" lengthAdjust="spacing" textLength="101" x="27" y="76.3638">Preconditions</text><line style="stroke:#A80036;stroke-width:1.0;" x1="120.5" x2="162.5" y1="107.5625" y2="107.5625"/><line style="stroke:#A80036;stroke-width:1.0;" x1="162.5" x2="162.5" y1="107.5625" y2="120.5625"/><line style="stroke:#A80036;stroke-width:1.0;" x1="121.5" x2="162.5" y1="120.5625" y2="120.5625"/><line style="stroke:#A80036;stroke-width:1.0;" x1="121.5" x2="131.5" y1="120.5625" y2="116.5625"/><text fill="#000000" font-family="sans-serif" font-size="13" font-weight="bold" lengthAdjust="spacing" textLength="9" x="129.5" y="100.4966">1</text><text fill="#000000" font-family="sans-serif" font-size="13" lengthAdjust="spacing" textLength="265" x="146.5" y="100.4966">Implement core Subscription functionality</text><line style="stroke:#A80036;stroke-width:1.0;" x1="120.5" x2="162.5" y1="178.6953" y2="178.6953"/><line style="stroke:#A80036;stroke-width:1.0;" x1="162.5" x2="162.5" y1="178.6953" y2="191.6953"/><line style="stroke:#A80036;stroke-width:1.0;" x1="121.5" x2="162.5" y1="191.6953" y2="191.6953"/><line style="stroke:#A80036;stroke-width:1.0;" x1="121.5" x2="131.5" y1="191.6953" y2="187.6953"/><text fill="#000000" font-family="sans-serif" font-size="13" font-weight="bold" lengthAdjust="spacing" textLength="9" x="129.5" y="171.6294">2</text><text fill="#000000" font-family="sans-serif" font-size="13" lengthAdjust="spacing" textLength="111" x="146.5" y="171.6294">Implement topics</text><polygon fill="#A80036" points="431.5,260.9609,421.5,264.9609,431.5,268.9609,427.5,264.9609" style="stroke:#A80036;stroke-width:1.0;"/><polygon fill="#A80036" points="619.5,260.9609,629.5,264.9609,619.5,268.9609,623.5,264.9609" style="stroke:#A80036;stroke-width:1.0;"/><line style="stroke:#A80036;stroke-width:1.0;" x1="425.5" x2="625.5" y1="264.9609" y2="264.9609"/><text fill="#000000" font-family="sans-serif" font-size="13" font-weight="bold" lengthAdjust="spacing" textLength="9" x="439.5" y="250.3286">3</text><text fill="#000000" font-family="sans-serif" font-size="13" lengthAdjust="spacing" textLength="116" x="456.5" y="242.7622">Coordinate details</text><text fill="#000000" font-family="sans-serif" font-size="13" lengthAdjust="spacing" textLength="75" x="456.5" y="257.895">out-of-band</text><rect fill="#FEFECE" filter="url(#fpasnfsarw4bm)" height="34.2969" style="stroke:#A80036;stroke-width:1.5;" width="123" x="631.5" y="224.6953"/><text fill="#000000" font-family="sans-serif" font-size="14" lengthAdjust="spacing" textLength="105" x="640.5" y="246.6904">Client Endpoint</text><polygon fill="#A80036" points="131.5,320.125,121.5,324.125,131.5,328.125,127.5,324.125" style="stroke:#A80036;stroke-width:1.0;"/><polygon fill="#A80036" points="408.5,320.125,418.5,324.125,408.5,328.125,412.5,324.125" style="stroke:#A80036;stroke-width:1.0;"/><line style="stroke:#A80036;stroke-width:1.0;" x1="125.5" x2="414.5" y1="324.125" y2="324.125"/><text fill="#000000" font-family="sans-serif" font-size="13" font-weight="bold" lengthAdjust="spacing" textLength="9" x="139.5" y="317.0591">4</text><text fill="#000000" font-family="sans-serif" font-size="13" lengthAdjust="spacing" textLength="133" x="156.5" y="317.0591">Create Subscriptions</text><line style="stroke:#A80036;stroke-width:1.0;" x1="693" x2="683" y1="382.2578" y2="378.2578"/><line style="stroke:#A80036;stroke-width:1.0;" x1="693" x2="683" y1="382.2578" y2="386.2578"/><line style="stroke:#A80036;stroke-width:1.0;" x1="120.5" x2="694" y1="382.2578" y2="382.2578"/><text fill="#000000" font-family="sans-serif" font-size="13" font-weight="bold" lengthAdjust="spacing" textLength="9" x="129.5" y="375.1919">5</text><text fill="#000000" font-family="sans-serif" font-size="13" lengthAdjust="spacing" textLength="139" x="146.5" y="375.1919">(Optional) Handshake</text><line style="stroke:#A80036;stroke-width:1.0;" x1="121.5" x2="131.5" y1="415.3906" y2="411.3906"/><line style="stroke:#A80036;stroke-width:1.0;" x1="121.5" x2="131.5" y1="415.3906" y2="419.3906"/><line style="stroke:#A80036;stroke-width:1.0;stroke-dasharray:2.0,2.0;" x1="120.5" x2="694" y1="415.3906" y2="415.3906"/><text fill="#000000" font-family="sans-serif" font-size="13" font-weight="bold" lengthAdjust="spacing" textLength="9" x="139.5" y="408.3247">6</text><text fill="#000000" font-family="sans-serif" font-size="13" lengthAdjust="spacing" textLength="53" x="156.5" y="408.3247">Success</text><path d="M33,462.3906 L163,462.3906 L163,473.5234 L153,483.5234 L33,483.5234 L33,462.3906 " fill="#EEEEEE" style="stroke:#000000;stroke-width:1.0;"/><rect fill="none" height="96.2656" style="stroke:#000000;stroke-width:2.0;" width="757" x="33" y="462.3906"/><text fill="#000000" font-family="sans-serif" font-size="13" font-weight="bold" lengthAdjust="spacing" textLength="81" x="50" y="477.4575">Processing</text><path d="M43,488.5234 L43,517.5234 L194,517.5234 L194,498.5234 L184,488.5234 L43,488.5234 " fill="#FBFB77" filter="url(#fpasnfsarw4bm)" style="stroke:#A80036;stroke-width:1.0;"/><path d="M184,488.5234 L184,498.5234 L194,498.5234 L184,488.5234 " fill="#FBFB77" style="stroke:#A80036;stroke-width:1.0;"/><text fill="#000000" font-family="sans-serif" font-size="13" lengthAdjust="spacing" textLength="126" x="51" y="507.5903">Send notifications...</text><path d="M334,488.5234 L334,517.5234 L503,517.5234 L503,498.5234 L493,488.5234 L334,488.5234 " fill="#FBFB77" filter="url(#fpasnfsarw4bm)" style="stroke:#A80036;stroke-width:1.0;"/><path d="M493,488.5234 L493,498.5234 L503,498.5234 L493,488.5234 " fill="#FBFB77" style="stroke:#A80036;stroke-width:1.0;"/><text fill="#000000" font-family="sans-serif" font-size="13" lengthAdjust="spacing" textLength="144" x="342" y="507.5903">Manage subscription...</text><path d="M609,488.5234 L609,517.5234 L776,517.5234 L776,498.5234 L766,488.5234 L609,488.5234 " fill="#FBFB77" filter="url(#fpasnfsarw4bm)" style="stroke:#A80036;stroke-width:1.0;"/><path d="M766,488.5234 L766,498.5234 L776,498.5234 L766,488.5234 " fill="#FBFB77" style="stroke:#A80036;stroke-width:1.0;"/><text fill="#000000" font-family="sans-serif" font-size="13" lengthAdjust="spacing" textLength="142" x="617" y="507.5903">Receive notifications...</text><!--MD5=[11703cb8edd07b2eae7ce0e78619eca5]
@startuml
skin rose
skinparam NoteTextAlignment left
skinparam Padding 2
skinparam ParticipantPadding 50
skinparam LifelineStrategy solid
autonumber

participant "FHIR Server" as S
participant "Subscription Manager" as SM

group Preconditions
  S -\\ S: Implement core Subscription functionality
  |||
  S -\\ S: Implement topics
  |||
  create "Client Endpoint" as E
  SM <-> E: Coordinate details\nout-of-band
  |||
  S <-> SM: Create Subscriptions
  |||
  S ->> E: (Optional) Handshake
  E - ->> S: Success
  |||
end

group Processing
  note over S: Send notifications...
  / note over SM: Manage subscription...
  / note over E: Receive notifications...
  ...
end
@enduml

PlantUML version 1.2022.7(Mon Aug 22 17:01:30 UTC 2022)
(GPL source distribution)
Java Runtime: OpenJDK Runtime Environment
JVM: OpenJDK 64-Bit Server VM
Default Encoding: UTF-8
Language: en
Country: null
--></g></svg>